<svg width="92" height="92" viewBox="0 0 92 92" xmlns="http://www.w3.org/2000/svg"><g fill="none" fill-rule="evenodd"><circle fill="#F7F8F9" cx="46" cy="46" r="46"/><path d="M56.476 59.571v-.952a10.48 10.48 0 0 0-7.588-10.073.952.952 0 0 1-.683-.798l-.359-2.872a.952.952 0 0 1 .596-1.004A6.669 6.669 0 0 0 46 31a6.667 6.667 0 0 0-2.442 12.872c.404.16.65.573.596 1.004l-.36 2.872a.952.952 0 0 1-.682.798 10.48 10.48 0 0 0-7.588 10.073v.952h20.952zm-19.047-22a8.571 8.571 0 1 1 12.395 7.674l.195 1.565a12.386 12.386 0 0 1 8.362 11.714v1.905a.952.952 0 0 1-.952.952H34.57a.952.952 0 0 1-.952-.952v-1.905c0-5.346 3.418-10.02 8.362-11.714l.195-1.565a8.573 8.573 0 0 1-4.747-7.674zm-9.524-4.904a.952.952 0 0 1-1.905 0v-3.818A2.85 2.85 0 0 1 28.85 26h3.817a.952.952 0 0 1 0 1.905h-3.818a.944.944 0 0 0-.944.944v3.818zm31.428-4.762a.952.952 0 0 1 0-1.905h3.818A2.85 2.85 0 0 1 66 28.849v3.818a.952.952 0 0 1-1.905 0v-3.818a.944.944 0 0 0-.944-.944h-3.818zm4.762 31.428a.952.952 0 0 1 1.905 0v3.818A2.85 2.85 0 0 1 63.15 66h-3.817a.952.952 0 0 1 0-1.905h3.818a.944.944 0 0 0 .944-.944v-3.818zm-31.428 4.762a.952.952 0 0 1 0 1.905h-3.818A2.85 2.85 0 0 1 26 63.151v-3.818a.952.952 0 0 1 1.905 0v3.818c0 .522.423.944.944.944h3.818z" fill="#7552f6" fill-rule="nonzero"/></g></svg>