<?xml version="1.0" encoding="UTF-8"?>
<svg width="53px" height="53px" viewBox="0 0 53 53" version="1.1" xmlns="http://www.w3.org/2000/svg" xmlns:xlink="http://www.w3.org/1999/xlink">
    <!-- Generator: Sketch 53.2 (72643) - https://sketchapp.com -->
    <title>calculator</title>
    <desc>Created with Sketch.</desc>
    <g id="Page-1" stroke="none" stroke-width="1" fill="none" fill-rule="evenodd">
        <g id="Desktop-HD-Copy" transform="translate(-233.000000, -449.000000)" fill="#7552F6" fill-rule="nonzero">
            <g id="calculator" transform="translate(233.000000, 449.000000)">
                <g id="Group">
                    <path d="M47.7,53 L5.3,53 C2.42916667,53 0,50.5708333 0,47.7 L0,5.3 C0,2.42916667 2.42916667,0 5.3,0 L47.7,0 C50.5708333,0 53,2.42916667 53,5.3 L53,47.7 C53,50.5708333 50.5708333,53 47.7,53 Z M5.3,2.20833333 C3.75416667,2.20833333 2.20833333,3.75416667 2.20833333,5.3 L2.20833333,47.7 C2.20833333,49.2458333 3.75416667,50.7916667 5.3,50.7916667 L47.7,50.7916667 C49.2458333,50.7916667 50.7916667,49.4666667 50.7916667,47.7 L50.7916667,5.3 C50.7916667,3.75416667 49.2458333,2.20833333 47.7,2.20833333 L5.3,2.20833333 Z" id="Shape"></path>
                    <rect id="Rectangle" x="25.3958333" y="0" width="2.20833333" height="52.7791667"></rect>
                    <rect id="Rectangle" x="0" y="25.3958333" width="52.7791667" height="2.20833333"></rect>
                </g>
                <g id="Group" transform="translate(6.625000, 7.625000)">
                    <g id="Rectangle">
                        <rect x="5.74166667" y="0.325" width="2.20833333" height="12.8083333"></rect>
                        <rect x="0.6625" y="5.625" width="12.8083333" height="2.20833333"></rect>
                    </g>
                    <g transform="translate(27.500000, 28.708333)" id="Rectangle">
                        <rect x="0.104166667" y="0.545833333" width="10.3791667" height="2.20833333"></rect>
                        <rect x="0.104166667" y="4.9625" width="10.3791667" height="2.20833333"></rect>
                    </g>
                    <g transform="translate(1.000000, 26.500000)" id="Rectangle">
                        <polygon transform="translate(6.044362, 6.175405) rotate(45.000000) translate(-6.044362, -6.175405) " points="-0.35974275 5.07124892 12.4484678 5.07124892 12.4484678 7.27956108 -0.35974275 7.27956108"></polygon>
                        <polygon transform="translate(5.888211, 6.019254) rotate(45.000000) translate(-5.888211, -6.019254) " points="4.78405517 -0.3848515 6.99236733 -0.3848515 6.99236733 12.423359 4.78405517 12.423359"></polygon>
                    </g>
                    <rect id="Rectangle" x="26.5" y="5.625" width="12.8083333" height="2.20833333"></rect>
                </g>
            </g>
        </g>
    </g>
</svg>