<?xml version="1.0" encoding="UTF-8"?>
<svg width="60px" height="50px" viewBox="0 0 60 50" version="1.1" xmlns="http://www.w3.org/2000/svg" xmlns:xlink="http://www.w3.org/1999/xlink">
    <!-- Generator: Sketch 53.2 (72643) - https://sketchapp.com -->
    <title>Group 4</title>
    <desc>Created with Sketch.</desc>
    <g id="Page-1" stroke="none" stroke-width="1" fill="none" fill-rule="evenodd">
        <g id="Desktop-HD-Copy" transform="translate(-233.000000, -206.000000)">
            <g id="Group-4" transform="translate(233.000000, 206.000000)">
                <path d="M25.7361316,49.6877005 C11.7000567,49.6877005 0.319455474,38.7144385 0.319455474,25.1807487 C0.319455474,11.6470588 11.7000567,0.673796791 25.7361316,0.673796791 C39.7722065,0.673796791 50.7734543,11.6470588 50.7734543,25.1807487 C50.7734543,38.7144385 39.7722065,49.6877005 25.7361316,49.6877005 Z M25.7361316,4.3315508 C13.5968236,4.3315508 3.73363585,13.8417112 3.73363585,25.5465241 C3.73363585,37.2513369 13.5968236,46.3957219 25.7361316,46.3957219 C37.8754396,46.3957219 47.7386273,36.8855615 47.7386273,25.1807487 C47.7386273,13.4759358 37.8754396,4.3315508 25.7361316,4.3315508 Z" id="Shape" fill="#7552F6" fill-rule="nonzero"></path>
                <path d="M26.115485,43.4695187 C25.7361316,43.4695187 25.3567782,43.4695187 24.9774248,43.1037433 L21.9425978,40.5433155 C21.9425978,40.5433155 21.5632445,40.1775401 21.5632445,40.1775401 L18.5284175,33.5935829 L13.976177,31.0331551 C13.5968236,31.0331551 13.2174702,30.6673797 13.2174702,30.3016043 L9.80328985,24.0834225 C9.42393647,23.7176471 9.42393647,22.9860963 10.1826432,22.2545455 L14.3555303,17.8652406 C14.3555303,17.8652406 14.3555303,17.4994652 14.7348837,17.4994652 L21.5632445,13.4759358 C21.9425978,13.1101604 22.7013046,13.1101604 23.4600113,13.4759358 L26.115485,14.9390374 L29.150312,13.1101604 L28.0122518,8.35508021 C28.0122518,8.35508021 28.0122518,7.98930481 28.0122518,7.98930481 L28.0122518,3.6 C28.0122518,2.8684492 28.7709586,1.77112299 29.9090187,1.77112299 C31.0470788,1.77112299 31.8057856,2.5026738 31.8057856,3.6 L31.8057856,7.98930481 L32.5644923,13.4759358 C32.5644923,14.2074866 32.5644923,14.9390374 31.8057856,15.3048128 L26.4948383,18.231016 C26.115485,18.5967914 25.3567782,18.5967914 24.5980715,18.231016 L22.3219512,16.7679144 L16.6316506,20.4256684 L13.2174702,23.7176471 L15.8729438,28.1069519 L20.8045377,30.3016043 C21.1838911,30.3016043 21.5632445,30.6673797 21.5632445,31.0331551 L24.5980715,37.9828877 L26.115485,39.4459893 L28.3916052,37.2513369 L29.5296653,28.4727273 C29.5296653,28.4727273 29.5296653,28.1069519 29.5296653,28.1069519 L31.0470788,25.5465241 L27.6328985,21.8887701 C27.2535451,21.5229947 27.2535451,21.1572193 27.2535451,20.4256684 C27.2535451,20.059893 27.6328985,19.6941176 28.0122518,19.3283422 L32.185139,16.402139 C32.5644923,16.0363636 33.7025525,16.0363636 34.0819058,16.402139 L39.3928531,19.6941176 L47.359274,16.0363636 C48.1179807,15.6705882 49.2560408,16.0363636 49.6353942,16.7679144 C50.0147476,17.4994652 49.6353942,18.5967914 48.8766875,18.9625668 L40.1515598,22.6203209 C39.3928531,22.9860963 39.0134997,22.9860963 38.6341463,22.6203209 L33.7025525,19.3283422 L31.4264322,20.7914439 L34.4612592,24.0834225 C34.8406126,24.4491979 34.8406126,25.1807487 34.4612592,25.9122995 L32.9438457,29.5700535 L31.8057856,38.3486631 C31.8057856,38.7144385 31.4264322,39.0802139 31.4264322,39.4459893 L27.6328985,43.1037433 C27.2535451,43.1037433 26.8741917,43.4695187 26.115485,43.4695187 Z" id="Path" fill="#7552F6" fill-rule="nonzero"></path>
                <path d="M44,42 C39.0909091,42 35,38.0113636 35,33 C35,28.0909091 38.9886364,24 44,24 C48.9090909,24 53,27.9886364 53,33 C53,37.9090909 49.0113636,42 44,42 Z" id="Shape" stroke="#7552F6" fill="#7552F6" fill-rule="nonzero"></path>
                <polygon id="Path" fill="#7552F6" fill-rule="nonzero" points="53.3268293 43.3260492 50.6853659 40.5729571 51.5195122 39.7470295 54.1609756 42.362467"></polygon>
                <polygon id="Path" fill="#7552F6" fill-rule="nonzero" points="53.8829268 45.5285229 52.9097561 44.7025953 55.6902439 42.0871578 56.5243902 42.9130854"></polygon>
                <polygon id="Path" fill="#7552F6" fill-rule="nonzero" points="55.2731707 47.0427236 54.4390244 46.0791413 57.0804878 43.4637038 57.9146341 44.2896315"></polygon>
                <polygon id="Path" fill="#7552F6" fill-rule="nonzero" points="56.802439 48.4192696 55.8292683 47.593342 58.6097561 44.9779045 59.4439024 45.8038321"></polygon>
                <circle id="Oval" fill="#F2EFFE" cx="44" cy="33" r="7"></circle>
            </g>
        </g>
    </g>
</svg>