<svg width="92" height="92" viewBox="0 0 92 92" xmlns="http://www.w3.org/2000/svg"><g fill="none" fill-rule="evenodd"><circle fill="#F7F8F9" cx="46" cy="46" r="46"/><path d="M61.404 47.94c3.588-3.67 3.588-9.633 0-13.303a8.997 8.997 0 0 0-12.934 0l-1.787 1.828a.956.956 0 0 1-1.366 0l-1.787-1.828a8.997 8.997 0 0 0-12.934 0c-3.588 3.67-3.588 9.632 0 13.303L46 63.694 61.404 47.94zm-14.3-14.624a10.908 10.908 0 0 1 15.665 0c4.308 4.406 4.308 11.539 0 15.945L46.683 65.713a.956.956 0 0 1-1.366 0L29.231 49.261c-4.308-4.406-4.308-11.54 0-15.945a10.908 10.908 0 0 1 15.664 0L46 34.446l1.105-1.13z" fill="#7552f6" fill-rule="nonzero"/></g></svg>