<?xml version="1.0" encoding="UTF-8"?>
<svg width="51px" height="54px" viewBox="0 0 51 54" version="1.1" xmlns="http://www.w3.org/2000/svg" xmlns:xlink="http://www.w3.org/1999/xlink">
    <!-- Generator: Sketch 53.2 (72643) - https://sketchapp.com -->
    <title> -44</title>
    <desc>Created with Sketch.</desc>
    <g id="Page-1" stroke="none" stroke-width="1" fill="none" fill-rule="evenodd">
        <g id="Desktop-HD-Copy" transform="translate(-579.000000, -214.000000)">
            <g id="--44" transform="translate(574.000000, 211.000000)">
                <g id="Group" transform="translate(5.000000, 2.500000)" fill="#7552F6" fill-rule="nonzero">
                    <path d="M49,28 L41.5,28 C41,28 40.25,27.5 40.25,26.75 C40.25,26.25 40.75,25.75 41.5,25.75 L47.75,25.75 L47.75,3.25 L2.25,3.25 L2.25,25.75 L8.5,25.75 C9,25.75 9.75,26.25 9.75,26.75 C9.75,27.5 9.25,28 8.5,28 L1,28 C0.5,28 0,27.5 0,26.75 L0,2 C0,1.25 0.5,0.75 1.25,0.75 L49.25,0.75 C50,0.75 50.5,1.25 50.5,2 L50.5,26.75 C50.25,27.5 49.75,28 49,28 Z" id="Path"></path>
                    <path d="M18.75,22 C18.5,22 18,22 18,21.75 C14,17.75 14,11.5 18,7.5 C22,3.5 28.25,3.5 32.25,7.5 C36.25,11.5 36.25,17.75 32.25,21.75 C31.75,22.25 31,22.25 30.5,21.75 C30,21.25 30,20.5 30.5,20.25 C33.5,17.25 33.5,12.25 30.5,9.25 C29,7.75 27,7 25,7 C25,7 25,7 25,7 C23,7 21,7.75 19.5,9.25 C16.5,12 16.5,17 19.5,20 C20,20.5 20,21.25 19.5,21.5 C19.25,21.75 19,22 18.75,22 Z" id="Path"></path>
                    <g transform="translate(5.000000, 6.000000)" id="Path">
                        <path d="M1.5,16.5 C0.75,16.5 0.25,16 0.25,15.25 L0.25,7.5 C0.25,7 0.75,6.5 1.25,6.5 C4,6.25 6.25,4 6.75,1.5 C6.75,1 7.5,0.5 8,0.5 C8.75,0.5 9,1.25 9,1.75 C8.5,5 6,7.75 2.5,8.5 L2.5,15.5 C2.5,16 2,16.5 1.5,16.5 Z"></path>
                        <path d="M13,15 C12.5,15 12.25,14.75 12,14.5 C10.75,12.75 10,10.5 10,8.5 C10,5.5 11.5,2.5 14,0.5 C14.5,0.25 15.25,0.25 15.5,0.75 C16,1.25 15.75,2 15.25,2.25 C13.25,3.75 12.25,6 12.25,8.5 C12.25,10.25 12.75,11.75 14,13.25 C14.25,13.75 14.25,14.5 13.75,14.75 C13.5,14.75 13.25,15 13,15 Z"></path>
                        <path d="M26.75,15.75 C26.5,15.75 26.25,15.75 26,15.5 C25.5,15 25.5,14.5 26,14 C27.5,12.5 28,10.75 28,8.75 C28,6.25 27,4.25 25,2.75 C24.5,2.25 24.25,1.75 24.75,1.25 C25.25,0.75 25.75,0.75 26.25,1 C28.75,3 30.25,5.75 30.25,9 C30.25,11.5 29.25,14 27.5,15.75 C27.25,15.5 27,15.75 26.75,15.75 Z"></path>
                        <path d="M32.25,16.5 C32.25,16.5 32.25,16.5 32.25,16.5 C31.25,16.25 31,15.75 31.25,15.25 C31.75,12 34.5,9.25 37.75,8.5 L37.75,1.5 C37.75,1 38.25,0.5 39,0.5 C39.5,0.25 40,0.75 40,1.5 L40,9.5 C40,10 39.75,10.5 39,10.75 C36.25,11 34,13.25 33.5,15.75 C33.25,16.25 32.75,16.5 32.25,16.5 Z"></path>
                    </g>
                    <g transform="translate(3.500000, 5.000000)" id="Shape">
                        <path d="M2.75,4.25 C1.75,4.25 0.75,3.5 0.75,2.25 C0.75,1.25 1.5,0.25 2.75,0.25 C4,0.25 4.75,1 4.75,2.25 C4.75,3.25 3.75,4.25 2.75,4.25 Z M2.75,2 C2.5,2 2.25,2.25 2.25,2.5 C2.25,2.75 3,2.75 3,2.5 C3.25,2 3,2 2.75,2 Z"></path>
                        <path d="M40.5,18.5 C39.5,18.5 38.5,17.75 38.5,16.5 C38.5,15.5 39.25,14.5 40.5,14.5 C41.5,14.5 42.5,15.25 42.5,16.5 C42.25,17.75 41.5,18.5 40.5,18.5 Z M40.5,16.25 C40.25,16.25 40.25,16.5 40.25,16.75 C40.25,17 41,17 41,16.75 C40.75,16.5 40.5,16.25 40.5,16.25 Z"></path>
                    </g>
                </g>
                <g id="Group">
                    <path d="M30.25,30.75 C27.25,30.75 12.5,30.5 12.5,26.25 C12.5,22 27.25,21.75 30.25,21.75 C33.25,21.75 48,22 48,26.25 C47.75,30.5 33,30.75 30.25,30.75 Z M14.75,26.25 C15.75,27 21,28.5 30,28.5 C39,28.5 44.25,27.25 45.25,26.25 C44,25.5 39,24 30,24 C21,24.25 16,25.5 14.75,26.25 Z" id="Shape" fill="#7552F6" fill-rule="nonzero"></path>
                    <g transform="translate(12.500000, 25.000000)" fill="#7552F6" fill-rule="nonzero" id="Shape">
                        <path d="M17.75,10.75 C14.75,10.75 0,10.5 0,6.25 L0,1 C0,0.5 0.5,0 1.25,0 C1.75,0 2.5,0.5 2.5,1 C3,1.5 8.25,3.25 18,3.25 C27.5,3.25 32.75,1.75 33.25,1 C33.25,1 33.25,0.75 33.25,0.75 C33.25,0.25 33.75,0 34.25,0 C35,0 35.25,0.5 35.25,1.25 L35.25,6.5 C35.25,10.75 20.5,10.75 17.75,10.75 Z M2.25,3.75 L2.25,6.5 C2.75,7 8,8.75 17.75,8.75 C27.5,8.75 32.75,7.25 33.25,6.5 L33.25,4 C29,5.75 20,6 17.75,6 C15.5,5.75 6.5,5.75 2.25,3.75 Z"></path>
                    </g>
                    <g transform="translate(12.000000, 30.000000)" fill-rule="nonzero" id="Path">
                        <path d="M1.75,2.75 C1,2.75 0.5,2.25 0.5,1.5 C0.5,0.75 1,0.25 1.5,0.25 L1.5,0.25 C2,0.25 2.75,0.75 2.75,1.5 C2.75,2.25 2.25,2.75 1.75,2.75 Z" fill="#000000"></path>
                        <path d="M34.75,2.75 C34.25,2.75 33.5,2.25 33.5,1.5 C33.5,0.75 34,0.25 34.5,0.25 L34.5,0.25 C35.25,0.25 35.75,0.75 35.75,1.5 C35.75,2.25 35.5,2.75 34.75,2.75 Z" fill="#000000"></path>
                        <path d="M18.25,11 C15.25,11 0.5,10.75 0.5,6.75 L0.5,1.5 C0.5,0.75 1,0.25 1.75,0.25 C2.25,0.25 3,0.75 3,1.5 L3,6.75 C3.5,7.25 8.75,8.75 18.5,8.75 C28.25,8.75 33.5,7.25 34,6.5 L34,1.5 C34,0.75 34.5,0.25 35.25,0.25 C36,0.25 36.5,0.75 36.5,1.5 L36.5,6.75 C35.75,10.75 21,11 18.25,11 Z" fill="#7552F6"></path>
                    </g>
                    <g transform="translate(12.500000, 35.000000)" fill="#7552F6" fill-rule="nonzero" id="Shape">
                        <path d="M17.75,11.25 C14.75,11.25 0,11 0,6.75 L0,1.75 C0,1 0.5,0.5 1.25,0.5 C1.75,0.5 2.5,1 2.5,1.75 C3,2.25 8.25,3.75 18,3.75 C27.5,3.75 32.75,2.25 33.25,1.5 C33.25,1.5 33.25,1.25 33.25,1.25 C33.25,0.75 33.75,0.5 34.25,0.5 C35,0.5 35.25,1 35.25,1.75 L35.25,6.75 C35.25,11 20.5,11.25 17.75,11.25 Z M2.25,4 L2.25,6.75 C2.75,7.5 8,9 17.75,9 C27.5,9 32.75,7.5 33.25,6.75 L33.25,4.25 C29,6 20,6.25 17.75,6.25 C15.5,6 6.5,6 2.25,4 Z"></path>
                    </g>
                    <g transform="translate(12.500000, 40.000000)" fill="#7552F6" fill-rule="nonzero" id="Shape">
                        <path d="M17.75,11.5 C14.75,11.5 0,11.25 0,7 L0,1.75 C0,1.25 0.5,0.75 1.25,0.75 C1.75,0.75 2.5,1.25 2.5,1.75 C3,2.5 8.25,4 18,4 C27.5,4 32.75,2.5 33.25,1.75 C33.25,1.75 33.25,1.5 33.25,1.5 C33.25,1 33.75,0.75 34.25,0.75 C35,0.75 35.25,1.25 35.25,2 L35.25,7.25 C35.25,11.25 20.5,11.5 17.75,11.5 Z M2.25,4.25 L2.25,7 C2.75,7.75 8,9.25 17.75,9.25 C27.5,9.25 32.75,7.75 33.25,7 L33.25,4.5 C29,6.25 20,6.5 17.75,6.5 C15.5,6.25 6.5,6.25 2.25,4.25 Z"></path>
                    </g>
                    <g transform="translate(12.000000, 45.000000)" fill-rule="nonzero">
                        <path d="M1.75,3.25 C1,3.25 0.5,2.75 0.5,2 C0.5,1.5 1,1 1.5,1 L1.5,1 C2,1 2.75,1.5 2.75,2 C2.75,2.75 2.25,3.25 1.75,3.25 Z" id="Path" fill="#000000"></path>
                        <path d="M34.75,3.25 C34.25,3.25 33.5,2.75 33.5,2 C33.5,1.5 34,1 34.5,1 L34.5,1 C35.25,1 35.75,1.5 35.75,2 C35.75,2.75 35.5,3.25 34.75,3.25 Z" id="Path" fill="#000000"></path>
                        <path d="M18.25,11.5 C15.25,11.5 0.5,11.25 0.5,7 L0.5,1.75 C0.5,1.25 1,0.75 1.75,0.75 C2.25,0.75 3,1.25 3,1.75 C3.5,2.5 8.75,4 18.5,4 C28,4 33.25,2.5 33.75,1.75 C33.75,1.75 33.75,1.5 33.75,1.5 C33.75,1 34.25,0.75 34.75,0.75 C35.5,0.75 35.75,1.25 35.75,2 L35.75,7.25 C35.75,11.25 21,11.5 18.25,11.5 Z M2.75,4.5 L2.75,7.25 C3.25,8 8.5,9.5 18.25,9.5 C28,9.5 33.25,8 33.75,7.25 L33.75,4.75 C29.5,6.5 20.5,6.75 18.25,6.75 C16,6.5 7,6.25 2.75,4.5 Z" id="Shape" fill="#7552F6"></path>
                    </g>
                    <g></g>
                </g>
            </g>
        </g>
    </g>
</svg>