<?xml version="1.0" encoding="UTF-8"?>
<svg width="62px" height="60px" viewBox="0 0 62 60" version="1.1" xmlns="http://www.w3.org/2000/svg" xmlns:xlink="http://www.w3.org/1999/xlink">
    <!-- Generator: Sketch 53.2 (72643) - https://sketchapp.com -->
    <title>Group 2</title>
    <desc>Created with Sketch.</desc>
    <g id="Page-1" stroke="none" stroke-width="1" fill="none" fill-rule="evenodd">
        <g id="Desktop-HD-Copy" transform="translate(-921.000000, -209.000000)" fill="#7552F6" fill-rule="nonzero">
            <g id="Group-2" transform="translate(921.000000, 209.000000)">
                <g id="Group">
                    <g transform="translate(42.144628, 0.000000)" id="Path">
                        <path d="M15.0452479,16.2344813 C14.4431818,16.2344813 13.8411157,15.6290481 13.8411157,15.023615 L13.8411157,9.87743316 C13.8411157,6.24483422 10.8307851,3.21766845 7.21838843,3.21766845 L2.10082645,3.21766845 C1.19772727,3.21766845 0.595661157,2.61223529 0.595661157,1.70408556 C0.595661157,1.09865241 1.19772727,0.190502674 2.10082645,0.190502674 L6.91735537,0.190502674 C12.0349174,0.190502674 16.2493802,4.42853476 16.2493802,9.57471658 L16.2493802,14.7208984 C16.2493802,15.6290481 15.647314,16.2344813 15.0452479,16.2344813 Z"></path>
                        <path d="M15.0452479,16.2344813 C14.7442149,16.2344813 14.4431818,16.2344813 14.1421488,15.9317647 L11.1318182,12.9045989 C10.5297521,12.6018824 10.5297521,11.391016 11.1318182,11.0882995 C11.7338843,10.4828663 12.6369835,10.4828663 12.9380165,11.0882995 L15.0452479,12.9045989 L17.1524793,11.0882995 C17.7545455,10.4828663 18.6576446,10.4828663 18.9586777,11.0882995 C19.5607438,11.391016 19.5607438,12.6018824 18.9586777,12.9045989 L15.9483471,15.9317647 C15.647314,16.2344813 15.346281,16.2344813 15.0452479,16.2344813 Z"></path>
                    </g>
                    <g transform="translate(0.000000, 43.097968)" id="Path">
                        <path d="M17.4535124,16.1222674 L12.3359504,16.1222674 C7.21838843,16.1222674 3.00392562,11.8842353 3.00392562,6.73805348 L3.00392562,1.59187166 C3.00392562,0.683721925 3.60599174,0.381005348 4.50909091,0.381005348 C5.41219008,0.381005348 6.0142562,0.986438503 6.0142562,1.59187166 L6.0142562,6.73805348 C6.0142562,10.3706524 9.02458678,13.3978182 12.6369835,13.3978182 L17.7545455,13.3978182 C18.6576446,13.3978182 19.2597107,14.0032513 19.2597107,14.9114011 C18.9586777,15.2141176 18.3566116,16.1222674 17.4535124,16.1222674 Z"></path>
                        <path d="M1.49876033,5.82990374 C1.19772727,5.82990374 0.896694215,5.82990374 0.595661157,5.52718717 C-0.00640495868,4.92175401 -0.00640495868,4.01360428 0.595661157,3.7108877 L3.60599174,0.683721925 C4.20805785,0.0782887701 4.81012397,0.0782887701 5.41219008,0.683721925 L8.42252066,3.7108877 C9.02458678,4.31632086 9.02458678,5.22447059 8.42252066,5.52718717 C7.82045455,6.13262032 6.91735537,6.13262032 6.61632231,5.52718717 L4.50909091,3.40817112 L2.4018595,5.52718717 C2.10082645,5.82990374 1.79979339,5.82990374 1.49876033,5.82990374 Z"></path>
                    </g>
                </g>
                <g id="-_cash-bills" transform="translate(3.509434, 12.903846)">
                    <g id="Group">
                        <path d="M42.070669,24.1318681 L1.46758148,24.1318681 C0.97838765,24.1318681 0.489193825,23.6291209 0.489193825,22.875 L0.489193825,1.50824176 C0.489193825,0.754120879 0.97838765,0.251373626 1.46758148,0.251373626 L42.070669,0.251373626 C42.5598628,0.251373626 43.2936535,0.754120879 43.2936535,1.50824176 L43.2936535,23.1263736 C43.2936535,23.6291209 42.5598628,24.1318681 42.070669,24.1318681 Z M2.44596913,21.8695055 L40.8476844,21.8695055 L40.8476844,2.51373626 L2.44596913,2.51373626 L2.44596913,21.8695055 Z" id="Shape"></path>
                        <path d="M21.7691252,21.1153846 C17.1217839,21.1153846 13.2082333,17.0934066 13.2082333,12.0659341 C13.2082333,7.03846154 17.1217839,3.01648352 21.7691252,3.01648352 C26.4164666,3.01648352 30.3300172,7.03846154 30.3300172,12.0659341 C30.3300172,17.0934066 26.4164666,21.1153846 21.7691252,21.1153846 Z M21.7691252,5.53021978 C18.3447684,5.53021978 15.4096055,8.5467033 15.4096055,12.0659341 C15.4096055,15.5851648 18.3447684,18.6016484 21.7691252,18.6016484 C25.4380789,18.6016484 28.3732419,15.5851648 28.3732419,12.0659341 C28.3732419,8.5467033 25.193482,5.53021978 21.7691252,5.53021978 Z" id="Shape"></path>
                        <g transform="translate(4.367802, 5.027473)" id="Path">
                            <path d="M1.50252389,14.3282967 C1.01333007,14.3282967 0.279539329,13.8255495 0.279539329,13.3228022 L0.279539329,6.28434066 C0.279539329,5.78159341 0.768733154,5.27884615 1.25792698,5.02747253 C3.7038961,5.02747253 5.6606714,3.26785714 5.90526832,1.00549451 C5.90526832,0.251373626 6.63905905,0 7.12825288,0 C7.86204362,0 8.10664053,0.754120879 8.10664053,1.25686813 C7.6174467,4.27335165 5.41607449,6.53571429 2.72550845,7.28983516 L2.72550845,13.3228022 C2.72550845,13.8255495 2.23631463,14.3282967 1.50252389,14.3282967 Z"></path>
                            <path d="M12.7539819,14.3282967 C12.509385,14.3282967 12.264788,14.3282967 12.0201911,14.0769231 C9.81881892,12.5686813 8.59583435,9.80357143 8.59583435,7.28983516 C8.59583435,6.53571429 9.08502818,6.03296703 9.81881892,6.03296703 C10.3080127,6.03296703 11.0418035,6.53571429 11.0418035,7.28983516 C11.0418035,9.30082418 12.0201911,11.0604396 13.4877726,12.3173077 C13.9769664,12.8200549 13.9769664,13.3228022 13.7323695,13.8255495 C13.2431757,14.3282967 12.9985788,14.3282967 12.7539819,14.3282967 Z"></path>
                            <path d="M27.6743935,14.3282967 C27.6743935,14.3282967 27.6743935,14.3282967 27.6743935,14.3282967 C26.9406028,14.3282967 26.451409,13.5741758 26.6960059,13.0714286 C27.1851997,10.0549451 29.3865719,7.79258242 32.077138,7.03846154 L32.077138,1.00549451 C32.077138,0.502747253 32.5663318,0 33.3001225,0 C34.0339133,0 34.5231071,0.502747253 34.5231071,1.00549451 L34.5231071,8.04395604 C34.5231071,8.5467033 34.0339133,9.04945055 33.5447194,9.30082418 C31.3433472,9.5521978 29.3865719,11.3118132 29.141975,13.5741758 C28.6527812,14.0769231 28.1635874,14.3282967 27.6743935,14.3282967 Z"></path>
                            <path d="M22.0486645,14.3282967 C21.8040676,14.3282967 21.5594707,14.0769231 21.3148738,13.8255495 C21.0702769,13.3228022 21.0702769,12.5686813 21.5594707,12.3173077 C23.0270522,11.0604396 24.0054398,9.30082418 24.0054398,7.28983516 C24.0054398,5.27884615 23.0270522,3.26785714 21.5594707,2.01098901 C21.0702769,1.50824176 21.0702769,1.00549451 21.3148738,0.502747253 C21.5594707,5.231926e-14 22.2932615,5.231926e-14 22.7824553,0.251373626 C24.9838275,2.01098901 25.9622151,4.52472527 25.9622151,7.28983516 C25.9622151,10.0549451 24.7392306,12.5686813 22.7824553,14.3282967 C22.5378584,14.3282967 22.2932615,14.3282967 22.0486645,14.3282967 Z"></path>
                        </g>
                        <g transform="translate(3.406886, 3.491300)" id="Shape">
                            <path d="M2.46344033,4.30128205 C1.48505268,4.30128205 0.751261946,3.54716117 0.751261946,2.54166667 C0.751261946,1.53617216 1.48505268,0.782051282 2.46344033,0.782051282 C3.44182798,0.782051282 4.17561872,1.53617216 4.17561872,2.54166667 C4.17561872,3.54716117 3.44182798,4.30128205 2.46344033,4.30128205 Z M2.46344033,2.03891941 C2.21884342,2.03891941 1.97424651,2.29029304 1.97424651,2.54166667 C1.97424651,3.04441392 2.95263416,3.04441392 2.95263416,2.54166667 C2.95263416,2.29029304 2.70803725,2.03891941 2.46344033,2.03891941 Z"></path>
                            <path d="M34.261039,16.8699634 C33.2826513,16.8699634 32.5488606,16.1158425 32.5488606,15.110348 C32.5488606,14.1048535 33.2826513,13.3507326 34.261039,13.3507326 C35.2394266,13.3507326 35.9732173,14.1048535 35.9732173,15.110348 C35.9732173,15.8644689 35.2394266,16.8699634 34.261039,16.8699634 Z M34.261039,14.6076007 C34.016442,14.6076007 33.7718451,14.8589744 33.7718451,15.110348 C33.7718451,15.6130952 34.7502328,15.6130952 34.7502328,15.110348 C34.7502328,14.8589744 34.5056359,14.6076007 34.261039,14.6076007 Z"></path>
                        </g>
                    </g>
                    <path d="M47.2072041,29.4107143 L6.60411664,29.4107143 C6.11492281,29.4107143 5.38113208,28.907967 5.38113208,28.4052198 L5.38113208,23.1263736 C5.38113208,22.3722527 5.8703259,21.8695055 6.60411664,21.8695055 L40.8476844,21.8695055 L40.8476844,6.78708791 C40.8476844,6.03296703 41.3368782,5.53021978 42.070669,5.53021978 L47.2072041,5.53021978 C47.6963979,5.53021978 48.1855918,6.03296703 48.1855918,6.78708791 L48.1855918,28.4052198 C48.1855918,29.1593407 47.9409949,29.4107143 47.2072041,29.4107143 Z M7.8271012,27.3997253 L46.2288165,27.3997253 L46.2288165,8.04395604 L43.2936535,8.04395604 L43.2936535,23.1263736 C43.2936535,23.6291209 42.8044597,24.3832418 42.070669,24.3832418 L7.8271012,24.3832418 L7.8271012,27.3997253 Z" id="Shape"></path>
                    <path d="M52.3437393,34.9409341 L11.7406518,34.9409341 C11.251458,34.9409341 10.5176672,34.4381868 10.5176672,33.6840659 L10.5176672,28.4052198 C10.5176672,27.6510989 11.0068611,27.1483516 11.7406518,27.1483516 L45.9842196,27.1483516 L45.9842196,12.0659341 C45.9842196,11.3118132 46.4734134,10.8090659 46.9626072,10.8090659 L52.0991424,10.8090659 C52.8329331,10.8090659 53.3221269,11.3118132 53.3221269,12.0659341 L53.3221269,33.6840659 C53.5667238,34.4381868 53.07753,34.9409341 52.3437393,34.9409341 Z M12.9636364,32.6785714 L51.3653516,32.6785714 L51.3653516,13.3228022 L48.4301887,13.3228022 L48.4301887,28.4052198 C48.4301887,28.907967 47.9409949,29.4107143 47.451801,29.4107143 L13.2082333,29.4107143 L13.2082333,32.6785714 L12.9636364,32.6785714 Z" id="Shape"></path>
                </g>
            </g>
        </g>
    </g>
</svg>