<?xml version="1.0" encoding="UTF-8"?>
<svg width="587px" height="361px" viewBox="0 0 587 361" version="1.1" xmlns="http://www.w3.org/2000/svg" xmlns:xlink="http://www.w3.org/1999/xlink">
    <!-- Generator: Sketch 53.2 (72643) - https://sketchapp.com -->
    <title>Group 3</title>
    <desc>Created with Sketch.</desc>
    <defs>
        <linearGradient x1="-0.0479457336%" y1="49.9524259%" x2="99.962107%" y2="49.9524259%" id="linearGradient-1">
            <stop stop-color="#D6EFFA" offset="0%"></stop>
            <stop stop-color="#BBE7FA" offset="100%"></stop>
        </linearGradient>
        <linearGradient x1="49.9775659%" y1="147.521035%" x2="49.9775659%" y2="-57.3135253%" id="linearGradient-2">
            <stop stop-color="#FFFFFF" offset="0%"></stop>
            <stop stop-color="#CDDFEC" offset="84%"></stop>
        </linearGradient>
        <linearGradient x1="49.9981742%" y1="-123.379716%" x2="49.9981742%" y2="191.130751%" id="linearGradient-3">
            <stop stop-color="#FFFFFF" offset="0%"></stop>
            <stop stop-color="#CDDFEC" offset="84%"></stop>
        </linearGradient>
        <linearGradient x1="19.4195185%" y1="-13.9653774%" x2="109.17136%" y2="162.401943%" id="linearGradient-4">
            <stop stop-color="#CDDFEC" offset="16%"></stop>
            <stop stop-color="#FFFFFF" offset="100%"></stop>
        </linearGradient>
        <linearGradient x1="50.0007307%" y1="147.520337%" x2="50.0007307%" y2="-57.3112174%" id="linearGradient-5">
            <stop stop-color="#FFFFFF" offset="0%"></stop>
            <stop stop-color="#CDDFEC" offset="84%"></stop>
        </linearGradient>
        <linearGradient x1="50%" y1="147.540984%" x2="50%" y2="-57.3414113%" id="linearGradient-6">
            <stop stop-color="#FFFFFF" offset="0%"></stop>
            <stop stop-color="#CDDFEC" offset="84%"></stop>
        </linearGradient>
        <linearGradient x1="-0.00233451455%" y1="49.9999441%" x2="99.9910485%" y2="49.9999441%" id="linearGradient-7">
            <stop stop-color="#B3D0E3" offset="0%"></stop>
            <stop stop-color="#C3DAE9" offset="27%"></stop>
            <stop stop-color="#D8E7F1" offset="71%"></stop>
            <stop stop-color="#DFECF4" offset="100%"></stop>
        </linearGradient>
        <linearGradient x1="-51.5161317%" y1="61.3124304%" x2="307.121213%" y2="12.002708%" id="linearGradient-8">
            <stop stop-color="#B3D0E3" offset="0%"></stop>
            <stop stop-color="#C3DAE9" offset="27%"></stop>
            <stop stop-color="#D8E7F1" offset="71%"></stop>
            <stop stop-color="#DFECF4" offset="100%"></stop>
        </linearGradient>
    </defs>
    <g id="Page-1" stroke="none" stroke-width="1" fill="none" fill-rule="evenodd">
        <g id="Desktop-HD-Copy-9" transform="translate(-708.000000, -213.000000)">
            <g id="Group-3" transform="translate(1001.000000, 393.500000) scale(-1, 1) translate(-1001.000000, -393.500000) translate(707.000000, 213.000000)">
                <path d="M201.707191,112.416109 L197.098267,116.910692 L192.489342,112.416109 L192.489342,234.441 C193.411127,241.313713 197.179601,242.182802 198.39961,242.269575 L198.426721,242.269575 C204.106542,242.154329 208.634132,237.484843 208.634132,231.774078 L208.661244,114.619336 L206.316115,116.910692 L201.707191,112.416109" id="Fill-2315" fill="#DAE7E8" transform="translate(200.575293, 177.342842) scale(-1, 1) translate(-200.575293, -177.342842) "></path>
                <g id="Group" transform="translate(395.119335, 98.791352)">
                    <path d="M61.764552,158.236456 C57.9960788,145.304529 42.6348059,146.360722 47.3643753,129.53349 C48.4800061,125.563613 52.5534816,118.346519 46.6079696,113.412646 C43.5227016,110.851479 39.161846,112.158501 36.4629143,115.404363 C34.2126749,118.110604 28.6277433,131.353016 20.18799,140.721816 C16.8261865,144.454422 16.3652941,150.975975 17.5419253,155.955946 C18.7185565,160.934562 23.1851462,167.503568 23.963241,175.249437 C24.4214223,179.821303 21.0745301,186.860784 20.3249021,190.990648 C18.7768459,199.514765 19.572563,207.648402 24.1611537,214.141482 C28.7483887,220.634562 40.9078149,221.53619 46.5171466,219.807504 C52.714794,217.895781 61.7509963,211.379652 61.7509963,199.044291 C61.7509963,194.372093 58.863641,191.095047 56.952293,190.28426 C55.0273894,189.473472 53.3139541,188.186787 52.6578602,185.711038 C52.2335681,184.105733 63.7572339,165.096966 61.764552,158.236456" id="Fill-2378" fill="#4AB9B4" transform="translate(39.476564, 166.318214) scale(-1, 1) translate(-39.476564, -166.318214) "></path>
                    <path d="M39.5150441,167.687961 C39.4350657,162.081596 39.3388205,156.476586 39.1314189,150.868864 C38.9267285,156.476586 38.8304833,162.081596 38.7505049,167.687961 C38.6691709,173.295683 38.6745932,178.902049 38.6339262,184.507059 C38.6339262,184.507059 37.0506252,218.14661 39.1314189,218.14661 C41.2135682,218.14661 39.6302672,184.507059 39.6302672,184.507059 C39.5882446,178.902049 39.596378,173.295683 39.5150441,167.687961" id="Fill-2379" fill="#1C4255" transform="translate(39.131948, 184.507737) scale(-1, 1) translate(-39.131948, -184.507737) "></path>
                    <path d="M42.1662332,171.609028 C41.1793812,170.132527 40.1301732,168.613995 38.8342522,167.503568 C39.8644823,168.971934 40.6520661,170.608424 41.5480952,172.198815 C42.4265019,173.798697 43.3509978,175.35248 44.2836272,176.898129 C46.1773527,179.963665 48.1320788,182.972257 50.3253844,185.750357 C48.7556391,182.375691 46.9459586,179.23016 45.0766332,176.140219 C44.1290926,174.609484 43.1720631,173.086885 42.1662332,171.609028" id="Fill-2380" fill="#1C4255" transform="translate(44.579818, 176.626963) scale(-1, 1) translate(-44.579818, -176.626963) "></path>
                    <path d="M33.9846564,201.606814 C33.2404507,202.656228 32.5220007,203.73547 31.868618,204.879792 C31.5378599,205.450598 31.2274353,206.022759 30.922433,206.632883 C30.6472531,207.252499 30.3625842,207.980581 30.460185,208.703239 C30.5957416,208.009053 30.9251441,207.480278 31.3141915,207.000314 L32.4691337,205.499408 C33.2377395,204.49338 33.9792341,203.462948 34.7275065,202.439295 C36.1982955,200.363516 37.679929,198.312142 39.0341394,196.042479 C37.1417694,197.60033 35.4961123,199.533746 33.9846564,201.606814" id="Fill-2381" fill="#1C4255" transform="translate(34.737364, 202.372859) scale(-1, 1) translate(-34.737364, -202.372859) "></path>
                    <path d="M31.1509046,171.020597 C32.8521398,168.73602 34.1480608,166.078589 35.384337,163.430649 C36.6043463,160.758303 37.719977,158.057486 38.8342522,155.284809 C37.070661,157.501595 35.7625398,160.167161 34.5194859,162.809677 C33.3008322,165.487446 32.1892681,168.19911 31.1509046,171.020597" id="Fill-2382" fill="#1C4255" transform="translate(34.992578, 163.152703) scale(-1, 1) translate(-34.992578, -163.152703) "></path>
                    <path d="M27.2905683,162.35005 C25.5825553,159.986835 23.3187602,157.770049 20.8651859,158.25137 C18.4116116,158.735402 17.4762711,161.350802 17.1509353,163.910613 C16.8120438,166.470424 17.8693852,169.126499 18.5607238,171.187364 C19.2656181,173.248229 20.1196246,174.807436 19.50962,176.877792 C18.2082767,181.270688 13.4380403,182.032665 11.8344058,185.914413 C11.0115773,187.908842 11.3626689,189.542619 11.8845617,191.245545 C12.4064546,192.947114 12.9595255,193.565373 13.2008162,195.405238 C13.3241727,196.352964 13.2807946,197.255948 12.8185466,198.35824 C11.9591179,200.409614 9.91899117,201.888827 8.65153704,203.603954 C6.03529483,207.144032 4.80308542,211.71861 6.29014122,216.232175 C7.77855259,220.74574 11.8655838,221.525343 15.3005878,221.525343 C19.1707285,221.525343 31.0454859,218.606237 29.0256927,206.087839 C26.8296759,192.351904 32.7806102,190.540512 34.0955092,184.821612 C35.7357439,177.731966 33.2957253,173.080106 30.6523718,167.338157 C29.7034756,165.271869 28.4292437,163.914681 27.2905683,162.35005" id="Fill-2383" fill="#1C4255" transform="translate(20.138445, 189.855190) scale(-1, 1) translate(-20.138445, -189.855190) "></path>
                    <path d="M22.3817487,200.626547 C21.337963,203.753096 20.2846883,206.879645 19.3086808,210.045513 C18.3231844,213.205958 17.3525992,216.373181 16.4836815,219.595994 C17.7335132,216.576556 18.8816776,213.501529 20.0162862,210.421078 C21.1617394,207.343339 22.2326365,204.228993 23.3035336,201.113291 C24.3473193,197.986742 25.3911051,194.858837 26.3671125,191.692969 C27.3566756,188.53388 28.3191274,185.365301 29.2002453,182.143844 C27.9531246,185.164638 26.8008936,188.238309 25.6622182,191.320115 C24.5235429,194.396498 23.4526458,197.510845 22.3817487,200.626547" id="Fill-2384" fill="#08191C" transform="translate(22.841963, 200.869919) scale(-1, 1) translate(-22.841963, -200.869919) "></path>
                    <path d="M23.5963358,187.902063 C23.2167773,186.779434 22.633884,185.705615 21.8517225,184.9816 C22.3356595,186.028303 22.6203283,187.122459 22.8643302,188.227462 C23.0947764,189.336533 23.271,190.468653 23.4201122,191.618398 C23.7725594,193.893485 23.9894499,196.30551 24.8027895,198.529075 C24.7621225,196.131964 24.7485668,193.786374 24.4096753,191.400109 C24.2334518,190.217824 24.0030056,189.027403 23.5963358,187.902063" id="Fill-2385" fill="#08191C" transform="translate(23.327256, 191.755337) scale(-1, 1) translate(-23.327256, -191.755337) "></path>
                    <path d="M25.235215,209.835359 C24.5167651,209.821801 23.7576481,209.913997 23.0256426,210.236685 C22.2949925,210.571576 21.6280541,211.153228 21.1495393,211.892156 C20.6520466,212.617526 20.3687334,213.497461 20.1843764,214.374685 C21.2118954,213.058172 22.1485914,211.911138 23.364534,211.408124 C23.960983,211.120688 24.6116547,210.983749 25.3029933,210.799356 C25.9943319,210.629876 26.7398931,210.384471 27.3498978,209.857052 C26.6178922,209.923488 25.9401093,209.823156 25.235215,209.835359" id="Fill-2386" fill="#08191C" transform="translate(23.767137, 212.104386) scale(-1, 1) translate(-23.767137, -212.104386) "></path>
                    <path d="M13.0134327,187.758344 C12.4440951,188.456598 11.92898,189.33111 11.7256451,190.315444 C12.2678715,189.573804 12.8914318,189.050452 13.5149921,188.50812 C14.1385524,187.98748 14.7892241,187.480399 15.4398957,186.984164 C16.741239,185.959155 18.0968049,184.9816 19.2625916,183.571535 C17.7172464,184.123358 16.2803466,184.892115 14.9247807,185.922548 C14.2469977,186.45539 13.5963261,187.038398 13.0134327,187.758344" id="Fill-2387" fill="#08191C" transform="translate(15.494118, 186.943489) scale(-1, 1) translate(-15.494118, -186.943489) "></path>
                    <path d="M11.8801523,162.35005 C10.4432525,160.3624 8.61323848,158.498131 6.60700093,158.236456 C10.0908053,160.228173 10.9990345,165.403384 10.9990345,171.480224 C10.9854788,178.89527 1.4151835,186.942133 7.90834421,194.800536 C11.7039288,199.39274 11.7581514,202.630467 13.5203871,205.31637 C11.6632618,192.305805 17.3973056,190.427978 18.6850932,184.821612 C20.3253279,177.731966 17.8853093,173.080106 15.2419558,167.338157 C14.2930596,165.271869 13.0188277,163.914681 11.8801523,162.35005" id="Fill-2388" fill="#416CA7" transform="translate(12.433237, 181.776413) scale(-1, 1) translate(-12.433237, -181.776413) "></path>
                    <path d="M57.5830843,215.159712 L10.0542324,215.159712 C8.61868806,215.159712 7.45561251,216.323016 7.45561251,217.758842 L7.45561251,222.460868 C7.45561251,223.895338 8.61868806,225.059998 10.0542324,225.059998 L57.5830843,225.059998 C59.0199842,225.059998 60.1857709,223.895338 60.1857709,222.460868 L60.1857709,217.758842 C60.1857709,216.323016 59.0199842,215.159712 57.5830843,215.159712" id="Fill-2389" fill="#FFFFFE" transform="translate(33.820692, 220.109855) scale(-1, 1) translate(-33.820692, -220.109855) "></path>
                    <path d="M15.8492766,246.849576 C16.1813903,248.395225 17.5491563,249.498872 19.1297461,249.498872 L48.4953704,249.498872 C50.0813826,249.498872 51.4505041,248.395225 51.7758399,246.849576 L56.4796537,225.059998 L11.1563074,225.059998 L15.8492766,246.849576" id="Fill-2390" fill="#9AC9E2" transform="translate(33.817981, 237.279435) scale(-1, 1) translate(-33.817981, -237.279435) "></path>
                    <path d="M183.841753,50.7623548 C180.680574,47.0311048 166.729089,44.8929575 163.284596,56.2005974 C162.514635,58.7292243 163.55571,64.0739146 163.281885,66.7042289 C162.79117,71.4387947 158.784118,75.1090322 154.473418,77.1251546 C150.164074,79.1426328 145.389771,79.9669787 140.990959,81.7837938 C130.544968,86.0980516 122.578308,97.1819792 124.076208,108.389288 C125.101016,116.068721 130.418901,122.884489 137.345843,126.360842 C144.270073,129.83584 152.589181,130.105651 159.968882,127.746503 C165.869661,125.861896 171.381392,122.201149 174.511393,116.855103 C176.567787,113.340787 177.560061,109.204143 180.116658,106.034207 C182.484832,103.096119 186.124526,101.079997 187.501781,97.5656797 C188.452033,95.1414519 191.73928,85.1408341 191.411233,82.5593298 C190.576205,75.975409 192.023949,60.4145237 183.841753,50.7623548" id="Fill-2391" fill="#D35400" transform="translate(157.664468, 88.528815) scale(-1, 1) translate(-157.664468, -88.528815) "></path>
                    <path d="M140.191403,251.85802 C139.601732,250.994355 138.90226,249.679198 138.90226,249.679198 L134.849118,251.425509 C134.849118,251.425509 134.49396,251.815989 134.571227,253.049796 C134.571227,253.049796 133.879889,254.358174 134.462782,255.606896 C134.797607,256.325487 137.125113,257.223047 138.308522,258.092136 C139.257418,258.789034 140.899009,259.061556 142.791379,259.178157 C144.685104,259.292047 147.096656,258.538205 147.207813,257.438625 C147.427414,255.261158 141.33279,253.524337 140.191403,251.85802" id="Fill-2392" fill="#1C4255" transform="translate(140.721363, 254.434359) scale(-1, 1) translate(-140.721363, -254.434359) "></path>
                    <path d="M146.043525,246.482145 L140.953375,242.665478 C140.953375,242.665478 140.867974,251.815989 140.945241,253.049796 C140.945241,253.049796 145.19494,253.971762 146.061147,253.600264 C147.595648,252.948109 146.565418,251.859376 146.565418,251.859376 C145.478254,250.533372 146.043525,246.482145 146.043525,246.482145" id="Fill-2393" fill="#F5C7B5" transform="translate(143.908370, 248.176981) scale(-1, 1) translate(-143.908370, -248.176981) "></path>
                    <path d="M121.357038,155.119398 C121.988732,190.701856 119.829315,249.940873 119.829315,249.940873 C119.860493,250.149671 122.06871,251.932591 125.823628,251.020115 L147.223947,132.307522 C139.658533,132.157025 128.903474,129.68941 126.550211,128.093596 C118.437149,137.105812 121.187592,145.564849 121.357038,155.119398" id="Fill-2394" fill="#000000" transform="translate(133.526631, 189.685958) scale(-1, 1) translate(-133.526631, -189.685958) "></path>
                    <path d="M80.4998258,45.0800623 C79.8925323,45.0149824 80.0158888,45.4854561 80.0063998,45.9383041 C79.9345548,46.7558708 79.7420645,47.8201991 79.4275732,48.5740417 C80.040289,48.475066 80.371047,47.9381565 80.9905407,47.1775346 C81.1396529,46.8155275 80.8915844,45.1248048 80.4998258,45.0800623" id="Fill-2395" fill="#F5C7B5" transform="translate(80.230974, 46.824021) scale(-1, 1) translate(-80.230974, -46.824021) "></path>
                    <path d="M81.083269,45.7376409 C80.949068,45.7173034 81.4831609,44.7072085 80.9504235,44.5241712 C80.9504235,44.5241712 80.9965128,44.1309798 80.6115321,43.9262492 C80.321441,43.7730402 79.571813,43.7377885 79.3481446,43.8137151 C78.9997642,43.9316725 78.2392917,44.7166993 77.8882001,44.9824424 C77.772977,45.0814182 76.1530758,46.4887719 75.530871,47.1965163 C74.9981336,47.7890149 74.5101299,48.7299624 74.1156602,49.3644918 C74.0966823,49.4024551 76.1978095,51.3480742 77.0355492,51.9080329 C77.9437783,50.9318338 80.4353085,47.642585 80.5125757,47.5775051 C81.8179857,46.5091094 81.6417621,45.8203467 81.083269,45.7376409" id="Fill-2396" fill="#F5C7B5" transform="translate(77.810208, 47.841562) scale(-1, 1) translate(-77.810208, -47.841562) "></path>
                    <path d="M118.959833,66.6757564 C112.553429,69.917551 101.207342,74.0474157 97.2951791,76.3997844 C96.5862181,76.8255157 98.4324988,85.0296559 99.721642,86.0885608 C102.694398,88.526347 119.55086,76.7699266 124.795545,71.5757337 C126.786871,69.602998 126.819405,62.7004566 118.959833,66.6757564" id="Fill-2397" fill="#F5C7B5" transform="translate(111.526192, 75.940061) scale(-1, 1) translate(-111.526192, -75.940061) "></path>
                    <path d="M107.016976,75.6134018 C102.414829,77.7162974 108.876812,84.8764469 111.6137,86.0885608 C116.111467,88.0775665 122.763229,84.6947654 129.535636,79.8476655 C129.1859,78.9663746 124.661021,70.6374979 123.297322,68.7515354 C117.006141,71.8577468 110.869494,73.8521759 107.016976,75.6134018" id="Fill-2398" fill="#C2CED8" transform="translate(117.472221, 77.710072) scale(-1, 1) translate(-117.472221, -77.710072) "></path>
                    <path d="M101.549301,49.2614486 C98.4301436,53.4346999 83.014648,63.5668334 79.4752655,67.0092911 C79.2814195,67.1977518 79.0916403,67.4594274 78.930328,67.7726246 C78.2200114,69.1501501 78.0763214,71.5648871 81.0206106,72.6454853 C84.997841,74.1057165 99.2123051,58.5516103 104.475968,51.7927872 C103.574516,51.1989327 102.663576,50.5386425 101.549301,49.2614486" id="Fill-2399" fill="#F5C7B5" transform="translate(91.488395, 61.001536) scale(-1, 1) translate(-91.488395, -61.001536) "></path>
                    <path d="M108.017183,253.596197 C107.342111,252.797611 106.515216,251.557025 106.515216,251.557025 L102.657276,253.701951 C102.657276,253.701951 102.34414,254.124971 102.544764,255.34522 C102.544764,255.34522 101.987626,256.717322 102.69252,257.900964 C103.097835,258.581591 105.651721,259.62287 106.767351,259.987589 C107.887049,260.353664 109.443239,260.692622 111.33832,260.616695 C113.233401,260.540769 115.556841,259.5483 115.556841,258.444652 C115.556841,256.254983 109.318526,255.139133 108.017183,253.596197" id="Fill-2400" fill="#1C4255" transform="translate(108.946289, 256.092230) scale(-1, 1) translate(-108.946289, -256.092230) "></path>
                    <path d="M115.272419,253.596197 C114.164921,252.477635 114.234055,250.771998 114.234055,250.771998 L109.314706,250.875041 C109.314706,250.875041 109.59802,254.124971 109.799999,255.34522 C109.799999,255.34522 113.737918,256.092283 115.020283,255.385895 C116.481583,254.580531 115.589621,253.918885 115.272419,253.596197" id="Fill-2401" fill="#F5C7B5" transform="translate(112.573907, 253.230817) scale(-1, 1) translate(-112.573907, -253.230817) "></path>
                    <path d="M104.640549,132.498694 L113.683529,252.477635 C116.622396,254.503248 120.126534,252.493905 120.180756,252.289174 C120.180756,252.289174 127.365256,142.637607 125.559642,136.983787 C124.696146,134.274835 112.182917,133.107463 104.640549,132.498694" id="Fill-2402" fill="#000000" transform="translate(115.245644, 192.936662) scale(-1, 1) translate(-115.245644, -192.936662) "></path>
                    <path d="M128.941434,62.5499593 C129.85373,64.9945246 131.542765,74.3497663 131.058828,75.8520282 C134.013961,80.0496845 140.866347,78.4552259 140.707746,75.612046 C138.940088,72.9234309 138.820798,67.1923285 138.716419,66.6730448 C137.092451,67.3428258 129.617861,62.8821381 128.941434,62.5499593" id="Fill-2403" fill="#B28B67" transform="translate(134.825943, 70.482968) scale(-1, 1) translate(-134.825943, -70.482968) "></path>
                    <path d="M130.490607,52.706618 C126.456443,53.9309344 124.809431,58.0662224 126.018595,62.0632155 L127.275205,66.2120618 C128.187501,69.2260767 134.26857,72.5614237 136.726211,71.2110149 C142.537522,68.0166744 140.416061,56.2385607 139.815545,55.0183118 C138.142777,51.6070382 134.246881,51.5717865 130.490607,52.706618" id="Fill-2404" fill="#B28B67" transform="translate(133.159834, 61.779385) scale(-1, 1) translate(-133.159834, -61.779385) "></path>
                    <path d="M136.868395,83.0474293 C133.345279,79.2307619 136.212301,77.9562797 130.322367,76.0947222 C128.955956,75.6635676 125.572464,75.612046 125.572464,75.612046 C125.572464,75.612046 125.996756,77.3488669 122.968422,77.808494 C118.558766,78.4755634 115.923546,75.8520282 115.923546,75.8520282 C115.923546,75.8520282 109.044049,79.9683346 107.72915,81.531609 C101.112633,89.4035703 106.381717,102.388375 109.377518,115.427412 C111.700958,125.548699 106.019781,131.3259 107.292658,142.702687 C111.296999,146.641379 138.21176,146.820349 149.974006,137.60747 C148.192792,125.37922 139.52937,110.305078 138.865143,101.939594 C138.516763,97.5643239 144.03256,90.8122799 136.868395,83.0474293" id="Fill-2405" fill="#012B7A" transform="translate(127.258302, 110.438076) scale(-1, 1) translate(-127.258302, -110.438076) "></path>
                    <path d="M140.051014,50.5562683 C137.183992,46.3979312 129.571134,45.2156455 126.164597,51.608394 C121.135447,61.0490531 131.440459,68.1197176 131.440459,68.1197176 C131.57466,66.4479766 128.661549,56.3619414 139.705345,52.9967661 C139.705345,52.9967661 145.229276,54.0651618 145.229276,61.5846068 C147.430715,57.6215095 145.230631,48.5292993 140.051014,50.5562683" id="Fill-2406" fill="#345D82" transform="translate(135.430207, 57.622621) scale(-1, 1) translate(-135.430207, -57.622621) "></path>
                    <path d="M139.217072,57.778786 C138.133974,57.8628476 137.856083,59.4166312 137.940128,60.4999411 C138.022818,61.5235943 138.743979,62.9634881 139.778276,63.1600837 C140.114456,61.9927123 140.79495,59.6308527 141.024041,58.1719773 C140.407258,57.8330193 139.630519,57.7448902 139.217072,57.778786" id="Fill-2407" fill="#F5C7B5" transform="translate(139.475081, 60.466060) scale(-1, 1) translate(-139.475081, -60.466060) "></path>
                    <path d="M3.0459566,3.04655479 C1.0139633,5.08030297 0,7.7404456 0,10.4005882 L0,74.8988783 C0,77.5603767 1.01667443,80.223231 3.0459566,82.2542675 C5.07659433,84.2825924 7.73621465,85.2994665 10.3985461,85.2994665 L114.37994,85.2994665 L114.37994,0 L10.3985461,0 C7.73757022,0 5.07659433,1.01551826 3.0459566,3.04655479" id="Fill-2408" fill="#4F8FC4" transform="translate(57.189970, 42.649733) scale(-1, 1) translate(-57.189970, -42.649733) "></path>
                    <path d="M1.43689987,8.50242326 C0.515115046,9.42167744 0,10.652773 0,11.9625068 L0,28.6988986 C0,30.0099883 0.515115046,31.2410838 1.43689987,32.1644055 C2.35868468,33.0904388 3.59224966,33.5988759 4.89359294,33.5988759 L9.9769651,33.5988759 L9.9769651,30.3326763 L4.89359294,30.3326763 C4.45981185,30.3326763 4.05314207,30.1631973 3.74136191,29.8513559 C3.42958175,29.5462937 3.26691384,29.1368324 3.26691384,28.6975428 L3.26691384,21.9658363 L9.9769651,21.9658363 L9.9769651,18.6982808 L3.26691384,18.6982808 L3.26691384,11.9665743 C3.26691384,11.5286406 3.42958175,11.1191793 3.74136191,10.8114054 C4.05314207,10.5009198 4.45981185,10.3327966 4.89359294,10.3327966 L9.9769651,10.3327966 L9.9769651,7.06659704 L4.89359294,7.0652412 C3.59224966,7.0652412 2.35868468,7.57503408 1.43689987,8.50242326" id="Fill-2409" fill="#345D82" transform="translate(4.988483, 20.332059) scale(-1, 1) translate(-4.988483, -20.332059) "></path>
                    <polyline id="Fill-2410" fill="#345D82" transform="translate(57.190648, 54.689523) scale(-1, 1) translate(-57.190648, -54.689523) " points="0.00135556591 63.8786747 114.381296 63.8786747 114.381296 45.5003703 0 45.5003703 0.00135556591 63.8786747"></polyline>
                    <polygon id="Fill-2411" fill="#FFFFFE" transform="translate(62.621723, 29.058194) scale(-1, 1) translate(-62.621723, -29.058194) " points="18.8152548 31.966454 106.428191 31.966454 106.428191 26.1499342 18.8152548 26.1499342"></polygon>
                    <polyline id="Fill-2412" fill="#FFFFFE" transform="translate(92.007003, 20.332736) scale(-1, 1) translate(-92.007003, -20.332736) " points="77.5871704 23.2403185 106.426835 23.2416743 106.426835 17.4237986 77.588526 17.4237986 77.5871704 23.2403185"></polyline>
                    <polyline id="Fill-2413" fill="#FFFFFE" transform="translate(67.537005, 20.332059) scale(-1, 1) translate(-67.537005, -20.332059) " points="61.5345589 23.2403185 73.5380951 23.2403185 73.5394506 17.4237986 61.5345589 17.4251545 61.5345589 23.2403185"></polyline>
                    <polyline id="Fill-2414" fill="#FFFFFE" transform="translate(59.919402, 11.606601) scale(-1, 1) translate(-59.919402, -11.606601) " points="53.9176341 8.70037475 53.9189897 14.5155387 65.9211702 14.5155387 65.9211702 8.69766308 53.9176341 8.70037475"></polyline>
                    <polyline id="Fill-2415" fill="#FFFFFE" transform="translate(24.819734, 20.332736) scale(-1, 1) translate(-24.819734, -20.332736) " points="18.8152548 23.2403185 30.8242132 23.2416743 30.8242132 17.4237986 18.8152548 17.4237986 18.8152548 23.2403185"></polyline>
                    <polyline id="Fill-2416" fill="#FFFFFE" transform="translate(100.426423, 73.125450) scale(-1, 1) translate(-100.426423, -73.125450) " points="94.4246546 76.0337098 106.428191 76.0350656 106.428191 70.2158341 94.4260102 70.2158341 94.4246546 76.0337098"></polyline>
                    <polyline id="Fill-2417" fill="#FFFFFE" transform="translate(43.588222, 73.126128) scale(-1, 1) translate(-43.588222, -73.126128) " points="40.5869989 76.0350656 46.5894448 76.0337098 46.5894448 70.2171899 40.5869989 70.2171899 40.5869989 76.0350656"></polyline>
                    <polyline id="Fill-2418" fill="#FFFFFE" transform="translate(18.881000, 73.124772) scale(-1, 1) translate(-18.881000, -73.124772) " points="0 76.0337098 37.7619996 76.0337098 37.7619996 70.2158341 0 70.2171899 0 76.0337098"></polyline>
                    <polyline id="Fill-2419" fill="#FFFFFE" transform="translate(70.801885, 73.124772) scale(-1, 1) translate(-70.801885, -73.124772) " points="52.013064 76.0337098 89.589351 76.0337098 89.5907066 70.2171899 52.0144195 70.2158341 52.013064 76.0337098"></polyline>
                    <polygon id="Fill-2420" fill="#FFFFFE" transform="translate(31.757520, 11.606601) scale(-1, 1) translate(-31.757520, -11.606601) " points="18.8152548 14.5155387 44.6997859 14.5155387 44.6997859 8.69766308 18.8152548 8.69766308"></polygon>
                    <polyline id="Fill-2421" fill="#FFFFFE" transform="translate(93.485925, 11.606601) scale(-1, 1) translate(-93.485925, -11.606601) " points="80.5463708 14.5155387 106.424124 14.5155387 106.42548 8.69766308 80.5463708 8.70037475 80.5463708 14.5155387"></polyline>
                    <path d="M96.328287,63.6088642 C95.7196379,63.5681892 95.8809502,64.0535771 95.9107727,64.5050692 C95.9107727,65.3253476 95.815883,66.1998593 95.5678145,66.9753953 C95.9744843,66.1415586 96.4475768,66.4669583 96.9979365,65.6548148 C97.1158707,65.2833168 96.7227566,63.602085 96.328287,63.6088642" id="Fill-2546" fill="#F5C7B5" transform="translate(96.293511, 65.290934) scale(-1, 1) translate(-96.293511, -65.290934) "></path>
                    <path d="M96.9035932,62.3086211 C96.7612587,62.309977 97.3156852,60.9988873 96.7599032,60.8822858 C96.7599032,60.8822858 96.8059924,60.4009653 96.4061005,60.2301305 C96.1024537,60.1013264 95.3243589,60.2003022 95.0939127,60.3331737 C94.730621,60.5419719 93.9443928,61.6266376 93.5797455,62.0116939 C93.4618113,62.1499888 91.7849763,64.1417062 91.1397269,65.1070587 C90.5893671,65.9192021 90.0823855,66.7693088 89.6757157,67.6017898 C89.6553822,67.6505997 91.8459767,69.9514468 92.7189612,70.4625955 C93.6583684,69.1216776 96.2366547,64.7125115 96.3166331,64.6216708 C97.6681323,63.0936479 97.4824198,62.301842 96.9035932,62.3086211" id="Fill-2547" fill="#B28B67" transform="translate(93.508774, 65.316329) scale(-1, 1) translate(-93.508774, -65.316329) "></path>
                    <path d="M137.923454,85.3374298 C130.748444,85.0513492 116.901338,82.3695133 112.338503,82.5213665 C111.511608,82.5484831 111.06156,91.3844411 111.67292,92.935513 C113.084064,96.5149098 133.530065,94.4445542 140.638653,92.4582601 C143.336229,91.7030616 146.723788,85.6885903 137.923454,85.3374298" id="Fill-2548" fill="#B28B67" transform="translate(127.493030, 88.700574) scale(-1, 1) translate(-127.493030, -88.700574) "></path>
                    <path d="M127.610537,81.4665291 C123.371682,83.1491167 121.440001,91.5566318 127.377379,94.437775 C129.685908,95.5576924 137.098142,96.3752591 145.371161,95.4370233 C146.607437,91.3166495 146.37428,85.7984127 145.31965,82.7071155 C138.311374,82.3600224 130.604982,80.2788201 127.610537,81.4665291" id="Fill-2549" fill="#C2CED8" transform="translate(134.921645, 88.475370) scale(-1, 1) translate(-134.921645, -88.475370) "></path>
                    <path d="M94.7058705,87.2288156 C94.5296469,87.4335463 94.3615567,87.7114918 94.2287113,88.0355357 C93.6390401,89.4713619 93.7244408,91.8142399 96.7297304,92.7104449 C100.0102,93.6907115 113.640415,77.1048171 118.304917,69.9161952 C117.354666,69.4036907 116.260724,68.5074856 115.039359,67.3319792 C112.291627,71.7560594 97.9348285,83.4948539 94.7058705,87.2288156" id="Fill-2550" fill="#B28B67" transform="translate(106.122818, 80.042028) scale(-1, 1) translate(-106.122818, -80.042028) "></path>
                </g>
                <path d="M362.558642,1.13686838e-13 L245.857972,1.13686838e-13 C227.950947,1.13686838e-13 213.297279,14.6524778 213.297279,32.5616643 L213.297279,317.789424 C213.297279,335.699967 227.950947,350.352444 245.857972,350.352444 L362.558642,350.352444 C380.465667,350.352444 395.119335,335.699967 395.119335,317.789424 L395.119335,32.5670876 C395.119335,14.6551894 380.465667,1.13686838e-13 362.558642,1.13686838e-13" id="Fill-2422" fill="#667B9E" transform="translate(304.208307, 175.176222) scale(-1, 1) translate(-304.208307, -175.176222) "></path>
                <path d="M355.238586,1.13686838e-13 L238.537916,1.13686838e-13 C220.644446,1.13686838e-13 205.990779,14.6524778 205.990779,32.5616643 L205.990779,317.789424 C205.990779,335.699967 220.644446,350.352444 238.551472,350.352444 L355.238586,350.352444 C373.145611,350.352444 387.799279,335.699967 387.799279,317.789424 L387.799279,32.5670876 C387.799279,14.6551894 373.145611,1.13686838e-13 355.238586,1.13686838e-13" id="Fill-2423" fill="#354052" transform="translate(296.895029, 175.176222) scale(-1, 1) translate(-296.895029, -175.176222) "></path>
                <polygon id="Fill-2424" fill="#345D82" transform="translate(296.881473, 40.205846) scale(-1, 1) translate(-296.881473, -40.205846) " points="217.106419 50.7826923 376.656527 50.7826923 376.656527 29.6289994 217.106419 29.6289994"></polygon>
                <path d="M217.106419,318.063302 C217.106419,329.928189 226.717382,339.546462 238.592139,339.546462 L355.211474,339.546462 C367.072676,339.546462 376.683638,329.928189 376.683638,318.063302 L376.683638,50.7826923 L217.106419,50.7826923 L217.106419,318.063302" id="Fill-2425" fill="#FFFFFE" transform="translate(296.895029, 195.164577) scale(-1, 1) translate(-296.895029, -195.164577) "></path>
                <polygon id="Fill-2432" fill="#DAE7E8" transform="translate(347.864307, 114.681704) scale(-1, 1) translate(-347.864307, -114.681704) " points="328.764383 117.398792 366.964231 117.398792 366.964231 111.964617 328.764383 111.964617"></polygon>
                <polygon id="Fill-2433" fill="#DAE7E8" transform="translate(273.938520, 114.681704) scale(-1, 1) translate(-273.938520, -114.681704) " points="226.825827 117.398792 321.051213 117.398792 321.051213 111.964617 226.825827 111.964617"></polygon>
                <path d="M349.456516,339.546462 C364.526643,339.546462 376.747084,330.071908 376.747084,318.384635 L376.747084,128.680671 L217.147086,128.680671 L217.147086,319.946463 C217.147086,330.771244 225.922305,339.546462 236.747086,339.546462 L349.456516,339.546462 Z" id="Fill-2436" fill="#E6EDF1" transform="translate(296.947085, 234.113567) scale(-1, 1) translate(-296.947085, -234.113567) "></path>
                <polygon id="Fill-2437" fill="#FFFFFF" transform="translate(280.526571, 158.118498) scale(-1, 1) translate(-280.526571, -158.118498) " points="217.147086 160.718984 343.906055 160.718984 343.906055 155.518012 217.147086 155.518012"></polygon>
                <polygon id="Fill-2438" fill="#FFFFFF" transform="translate(280.526571, 187.709534) scale(-1, 1) translate(-280.526571, -187.709534) " points="217.147086 190.31002 343.906055 190.31002 343.906055 185.109048 217.147086 185.109048"></polygon>
                <polygon id="Fill-2439" fill="#FFFFFF" transform="translate(280.526571, 217.302604) scale(-1, 1) translate(-280.526571, -217.302604) " points="217.147086 219.902412 343.906055 219.902412 343.906055 214.702796 217.147086 214.702796"></polygon>
                <polygon id="Fill-2440" fill="#FFFFFF" transform="translate(280.526571, 246.894318) scale(-1, 1) translate(-280.526571, -246.894318) " points="217.147086 249.494804 343.906055 249.494804 343.906055 244.293832 217.147086 244.293832"></polygon>
                <polygon id="Fill-2441" fill="#FFFFFF" transform="translate(280.526571, 276.486710) scale(-1, 1) translate(-280.526571, -276.486710) " points="217.147086 279.087196 343.906055 279.087196 343.906055 273.886224 217.147086 273.886224"></polygon>
                <polygon id="Fill-2442" fill="#FFFFFF" transform="translate(280.526571, 306.077746) scale(-1, 1) translate(-280.526571, -306.077746) " points="217.147086 308.678232 343.906055 308.678232 343.906055 303.47726 217.147086 303.47726"></polygon>
                <polyline id="Fill-2444" fill="#BDABFF" transform="translate(351.903894, 64.103743) scale(-1, 1) translate(-351.903894, -64.103743) " points="327.124149 50.7826923 350.263659 77.4247935 376.683638 77.4247935 353.530573 50.7826923 327.124149 50.7826923"></polyline>
                <polyline id="Fill-2445" fill="#FBE0E3" transform="translate(325.497470, 64.103743) scale(-1, 1) translate(-325.497470, -64.103743) " points="300.717725 50.7826923 323.87079 77.4247935 350.277214 77.4247935 327.137704 50.7826923 300.717725 50.7826923"></polyline>
                <polyline id="Fill-2446" fill="#BDABFF" transform="translate(299.077490, 64.103743) scale(-1, 1) translate(-299.077490, -64.103743) " points="274.297745 50.7826923 297.437255 77.4247935 323.857235 77.4247935 300.704169 50.7826923 274.297745 50.7826923"></polyline>
                <polyline id="Fill-2447" fill="#FBE0E3" transform="translate(272.671066, 64.103743) scale(-1, 1) translate(-272.671066, -64.103743) " points="247.891321 50.7826923 271.044387 77.4247935 297.450811 77.4247935 274.311301 50.7826923 247.891321 50.7826923"></polyline>
                <polyline id="Fill-2448" fill="#BDABFF" transform="translate(246.251086, 64.103743) scale(-1, 1) translate(-246.251086, -64.103743) " points="221.471342 50.7826923 244.610852 77.4247935 271.030831 77.4247935 247.877766 50.7826923 221.471342 50.7826923"></polyline>
                <path d="M234.688108,90.7268625 C242.02172,90.7268625 247.945543,84.762557 247.89132,77.4247935 L221.484896,77.4247935 C221.430674,84.762557 227.368052,90.7268625 234.688108,90.7268625" id="Fill-2449" fill="#7552F6" transform="translate(234.688109, 84.075828) scale(-1, 1) translate(-234.688109, -84.075828) "></path>
                <path d="M261.107929,90.7268625 C268.427984,90.7268625 274.365363,84.762557 274.31114,77.4247935 L247.890953,77.4247935 C247.850494,84.762557 253.774317,90.7268625 261.107929,90.7268625" id="Fill-2450" fill="#DC979E" transform="translate(261.101231, 84.075828) scale(-1, 1) translate(-261.101231, -84.075828) "></path>
                <polyline id="Fill-2451" fill="#FBE0E3" transform="translate(219.837885, 64.103743) scale(-1, 1) translate(-219.837885, -64.103743) " points="195.064918 50.7826923 218.204428 77.4247935 244.610852 77.4247935 221.471342 50.7826923 195.064918 50.7826923"></polyline>
                <path d="M208.268129,90.7268625 C215.60174,90.7268625 221.525563,84.762557 221.471341,77.4247935 L195.064917,77.4247935 C195.010694,84.762557 200.948073,90.7268625 208.268129,90.7268625" id="Fill-2452" fill="#DC979E" transform="translate(208.268129, 84.075828) scale(-1, 1) translate(-208.268129, -84.075828) "></path>
                <path d="M287.528068,90.7268625 C294.848124,90.7268625 300.785503,84.762557 300.73128,77.4247935 L274.324856,77.4247935 C274.270634,84.762557 280.208013,90.7268625 287.528068,90.7268625" id="Fill-2453" fill="#7552F6" transform="translate(287.528068, 84.075828) scale(-1, 1) translate(-287.528068, -84.075828) "></path>
                <path d="M313.934653,90.7268625 C321.268264,90.7268625 327.192087,84.762557 327.151628,77.4247935 L300.731441,77.4247935 C300.677218,84.762557 306.614597,90.7268625 313.934653,90.7268625" id="Fill-2454" fill="#DC979E" transform="translate(313.941350, 84.075828) scale(-1, 1) translate(-313.941350, -84.075828) "></path>
                <path d="M340.381583,90.7268625 C347.701639,90.7268625 353.639018,84.762557 353.584795,77.4247935 L327.164816,77.4247935 C327.110593,84.762557 333.047972,90.7268625 340.381583,90.7268625" id="Fill-2455" fill="#7552F6" transform="translate(340.374805, 84.075828) scale(-1, 1) translate(-340.374805, -84.075828) "></path>
                <path d="M315.12739,16.8746866 L278.622,16.8746866 C277.320657,16.8746866 276.276871,17.9241007 276.276871,19.2189204 L276.276871,19.2663745 C276.276871,20.5598383 277.320657,21.6092524 278.622,21.6092524 L315.12739,21.6092524 C316.415178,21.6092524 317.472519,20.5598383 317.472519,19.2663745 L317.472519,19.2189204 C317.472519,17.9241007 316.415178,16.8746866 315.12739,16.8746866" id="Fill-2456" fill="#345D82" transform="translate(296.874695, 19.241970) scale(-1, 1) translate(-296.874695, -19.241970) "></path>
                <text id="Pillr" transform="translate(293.756978, 40.186001) scale(-1, 1) translate(-293.756978, -40.186001) " font-family="HKGrotesk-Medium, HK Grotesk" font-size="13.5520004" font-weight="400" fill="#FFFFFF">
                    <tspan x="281.756978" y="44.1860008">Pillr</tspan>
                </text>
                <path d="M296.867918,7.27675102 C295.349684,7.27675102 294.129674,8.50784659 294.129674,10.0236669 C294.129674,11.5381314 295.349684,12.7678711 296.867918,12.7678711 C298.386151,12.7678711 299.619716,11.5381314 299.619716,10.0236669 C299.619716,8.50784659 298.386151,7.27675102 296.867918,7.27675102" id="Fill-2457" fill="#345D82" transform="translate(296.874695, 10.022311) scale(-1, 1) translate(-296.874695, -10.022311) "></path>
                <rect id="Rectangle" fill="#F2EFFE" x="226.799996" y="94.4999984" width="68.5999988" height="13.9999998" rx="2.79999995"></rect>
                <text id="Sadaqaah" transform="translate(260.499996, 102.099998) scale(-1, 1) translate(-260.499996, -102.099998) " font-family="HKGrotesk-Medium, HK Grotesk" font-size="8.39999986" font-weight="400" fill="#BEACFF">
                    <tspan x="241.999996" y="104.599998">Sadaqaah</tspan>
                </text>
                <rect id="Rectangle-Copy" fill="#F2EFFE" x="300.299995" y="94.4999984" width="66.4999989" height="13.9999998" rx="2.79999995"></rect>
                <text id="Zakat" transform="translate(335.199995, 102.099998) scale(-1, 1) translate(-335.199995, -102.099998) " font-family="HKGrotesk-Medium, HK Grotesk" font-size="8.39999986" font-weight="400" fill="#BEACFF">
                    <tspan x="322.199995" y="104.599998">Zakat</tspan>
                </text>
                <g id="man-with-broken-leg" transform="translate(0.000000, 179.899997)">
                    <path d="M64.2323856,42.3349949 C64.2323856,42.3349949 66.9937116,55.8839208 59.5657448,62.6839033 C52.1377781,69.4838858 60.816231,44.9497688 60.816231,44.9497688" id="Path" fill="#F9AA8F" fill-rule="nonzero"></path>
                    <path d="M57.1988941,35.2012951 C57.1988941,35.2012951 53.3843195,42.9906514 57.1988941,47.2426035 C61.0134686,51.4945556 63.7392917,57.6271034 60.2047946,62.5543424 C60.2047946,62.5543424 69.9522751,60.6658946 70.9384629,55.169373 C71.9246507,49.6728513 61.7984741,42.9317601 65.3487503,37.5687254 C65.3487503,37.5687254 63.3093138,35.1463298 61.5341757,37.4391646 C59.7590377,39.7319993 57.1988941,35.2012951 57.1988941,35.2012951 Z" id="Path" fill="#DFECF4" fill-rule="nonzero"></path>
                    <path d="M37.1240546,38.6052124 C37.1240546,38.6052124 35.3804745,74.2776379 44.1891042,70.4065162 C52.9977339,66.5353945 56.9345957,57.3208686 57.088441,52.7391252 C57.2225626,48.7934079 59.2541095,43.5874166 59.975999,44.5453819 C60.6978885,45.5033471 60.0903968,49.2017209 61.5538995,50.3991774 C63.0174022,51.5966339 64.3152254,55.9663686 62.1613912,59.236799 C60.007557,62.5072294 44.8676014,92.9304767 34.6191375,79.0360552" id="Path" fill="#B28B67" fill-rule="nonzero"></path>
                    <path d="M43.1161319,82.1808508 C38.5165518,83.6609855 35.5698226,76.5586943 41.0254137,73.0252161 C46.6585185,69.358251 47.4869163,68.5730336 47.4869163,68.5730336 L47.4869163,68.5730336 C46.4472785,69.2859681 45.3432501,69.9010884 44.1891042,70.4104423 C38.212806,73.0369944 37.0885519,57.4543555 36.9899331,47.171934 L36.6349055,46.4456079 L34.6033585,79.0321291 C37.2226734,82.5734595 40.1575684,83.2330421 43.1161319,82.1808508 Z" id="Path" fill="#B28B67" fill-rule="nonzero"></path>
                    <path d="M3.83429828,89.4833724 C3.83429828,89.4833724 7.47530374,106.938755 15.5620439,120.318859 C19.6517192,127.137147 20.8010984,135.310379 18.749403,142.984158 L9.6015247,177.635801 C9.43396675,178.2691 9.57103408,178.943932 9.97259745,179.462725 C10.3741608,179.981519 10.9947945,180.285588 11.6527954,180.28591 L19.4279002,180.28591 C19.8693649,180.28591 20.2613,180.004756 20.4009033,179.587927 C20.5405067,179.171099 20.3964531,178.712127 20.0432814,178.448501 L19.7987068,178.263975 C18.171771,177.047702 17.5999441,174.87691 18.4180439,173.022649 C22.8795576,162.905123 36.5126182,131.01352 38.244364,114.916563 C40.3232479,95.6276984 25.2937454,67.8035206 25.2937454,67.8035206" id="Path" fill="#6161AD" fill-rule="nonzero"></path>
                    <path d="M3.83429828,89.4833724 C3.83429828,89.4833724 7.47530374,106.938755 15.5620439,120.318859 C19.6517192,127.137147 20.8010984,135.310379 18.749403,142.984158 L9.6015247,177.635801 C9.43396675,178.2691 9.57103408,178.943932 9.97259745,179.462725 C10.3741608,179.981519 10.9947945,180.285588 11.6527954,180.28591 L19.4279002,180.28591 C19.8693649,180.28591 20.2613,180.004756 20.4009033,179.587927 C20.5405067,179.171099 20.3964531,178.712127 20.0432814,178.448501 L19.7987068,178.263975 C18.171771,177.047702 17.5999441,174.87691 18.4180439,173.022649 C22.8795576,162.905123 36.5126182,131.01352 38.244364,114.916563 C40.3232479,95.6276984 25.2937454,67.8035206 25.2937454,67.8035206" id="Path" fill="#000000" fill-rule="nonzero"></path>
                    <path d="M36.9386513,89.9073898 L3.51477342,88.0307202 C3.51477342,88.0307202 8.12224296,112.615876 27.1832813,126.592746 C27.7853507,127.029568 28.1394505,127.728039 28.1347598,128.469562 C28.130069,129.211086 27.7671607,129.905064 27.1596128,130.334306 L6.6035137,144.805863 C2.87074346,147.36365 0.802071774,151.716676 1.18342539,156.211145 C1.40247024,158.402018 2.20300037,160.495499 3.50293917,162.276949 C7.1952264,167.447606 9.34511586,160.946006 10.62716,156.855023 C11.3056573,154.69175 13.4279335,153.651337 15.5383754,152.791523 L26.8243089,148.20978 C28.1139765,147.685762 29.0563549,146.556431 29.3371155,145.198471 L29.4554581,144.617411 C29.7005442,143.423084 30.4627255,142.397284 31.5382868,141.814185 C34.8282094,140.031741 41.9603197,135.925054 44.1891042,132.686033 C47.1200544,128.426228 41.7078556,110.138516 36.9386513,89.9073898 Z" id="Path" fill="#000000" fill-rule="nonzero"></path>
                    <path d="M36.9386513,89.9073898 L3.51477342,88.0307202 C3.51477342,88.0307202 8.12224296,112.615876 27.1832813,126.592746 C27.7853507,127.029568 28.1394505,127.728039 28.1347598,128.469562 C28.130069,129.211086 27.7671607,129.905064 27.1596128,130.334306 C27.1596128,130.334306 32.2365077,128.516528 32.3666845,121.842181 C32.4968613,115.167833 32.6625409,106.071089 40.402143,104.076637 C39.2818336,99.5773418 38.0905187,94.8032201 36.9386513,89.9073898 Z" id="Path" fill="#000000" fill-rule="nonzero"></path>
                    <path d="M21.1478118,166.729132 L12.4693589,166.729132 L9.58969044,177.635801 C9.4221325,178.2691 9.55919982,178.943932 9.9607632,179.462725 C10.3623266,179.981519 10.9829602,180.285588 11.6409611,180.28591 L19.416066,180.28591 C19.8575306,180.28591 20.2494657,180.004756 20.3890691,179.587927 C20.5286725,179.171099 20.3846189,178.712127 20.0314472,178.448501 L19.7868726,178.263975 C18.1599368,177.047702 17.5881098,174.87691 18.4062096,173.022649 C19.1280991,171.420806 20.0630052,169.273236 21.1478118,166.729132 Z" id="Path" fill="#8DA4D4" fill-rule="nonzero"></path>
                    <path d="M30.4850382,144.193393 L30.4850382,144.193393 L30.5284304,143.989237 C30.5560437,143.859676 30.5915464,143.730115 30.630994,143.596628 C30.7651155,142.595476 30.6546625,140.298715 28.2207509,136.529672 C24.82432,131.272641 22.6980991,132.301276 21.700077,132.996193 L21.700077,132.996193 L5.88162421,144.177689 C1.86987897,146.966521 -0.343323697,151.672764 0.074950275,156.525232 C0.3097983,158.894545 1.17139208,161.159583 2.57197786,163.089649 C6.55223193,168.684323 9.40034238,162.40651 10.7810053,157.985736 C11.5167961,155.647004 13.2625607,153.75691 15.5423202,152.830784 L27.6921542,147.872137 C29.0831148,147.302169 30.097701,146.080417 30.3982536,144.613484 L30.4850382,144.189467 L30.4850382,144.193393 Z" id="Path" fill="#D6EFFA" fill-rule="nonzero"></path>
                    <path d="M5.8500662,160.054784 C-0.769226506,161.487806 0.394475131,152.47351 0.485204412,151.837484 C0.0666189562,153.37092 -0.0670659021,154.967548 0.0907292802,156.548789 C0.325577305,158.918102 1.18717109,161.183139 2.58775686,163.113206 C6.56801094,168.70788 9.41612139,162.430067 10.7967843,158.009293 C11.5325751,155.67056 13.2783397,153.780466 15.5580992,152.854341 L27.7079332,147.895693 C29.0988938,147.325726 30.11348,146.103973 30.4140326,144.637041 L30.5008172,144.213024 L30.5008172,144.213024 L30.5442094,144.008867 C30.5718227,143.879306 30.6073254,143.749745 30.646773,143.616258 C30.6885577,143.241814 30.6885577,142.863916 30.646773,142.489471 C26.0432482,145.39085 18.2247511,147.593384 12.6310937,150.180676 C6.50883967,152.987828 8.87569046,159.399128 5.8500662,160.054784 Z" id="Path" fill="url(#linearGradient-1)" fill-rule="nonzero"></path>
                    <path d="M27.5028062,15.6729389 L27.5343642,15.5512302 C29.3252813,12.7126693 26.0550824,12.3122085 25.9249056,10.7456998 C25.5817123,6.54478685 29.7631487,3.16835212 33.9682536,2.67759126 C38.1733585,2.1868304 41.4396126,4.38151297 43.46327,7.94247378 L43.46327,7.94247378 C43.46327,7.94247378 46.1259771,12.0373824 45.3173031,13.8826432 C45.163008,14.2432686 44.948248,14.5751691 44.6821981,14.864165 C43.6388278,16.0260342 42.9217576,17.4412011 42.6033142,18.9669258 C42.1733363,20.8632257 41.5500656,21.3853953 40.0668391,21.5267344 L40.0668391,21.5267344 L39.8577673,21.5267344 C39.1556015,21.597404 37.0254358,21.9782344 37.3370712,23.9373518 C37.4593585,24.7225691 37.6920988,25.6844604 37.9524524,26.6463517 C38.4968071,28.6753217 38.0669547,30.8408076 36.788248,32.5113133 C35.5095413,34.181819 33.5259771,35.169227 31.4159995,35.1855907 L31.1635354,35.1855907 C29.2617349,35.204733 27.4254605,34.4947861 26.0353587,33.2029168 C23.4002648,30.8040777 23.5383311,26.6973908 26.1221432,24.2435865 C27.7710493,22.6927822 29.7631487,19.6736214 27.5028062,15.6729389 Z" id="Path" fill="#B28B67" fill-rule="nonzero"></path>
                    <path d="M36.2917121,12.9560867 L32.0195464,9.8819607 L28.1260769,10.3884259 L28.3193697,17.667391 L28.3193697,17.667391 C28.3588172,17.8165823 28.3903752,17.9657736 28.4179885,18.1110388 C28.7295318,19.1242268 29.3165919,20.0319027 30.1142315,20.7336649 C31.7591928,22.2373561 32.9228945,26.4657517 29.218773,26.2498169 C25.5146515,26.0338822 32.4455796,31.9858299 32.4455796,31.9858299 L34.8124303,29.3043125 L36.9544303,17.1334432 L36.2917121,12.9560867 Z" id="Path" fill="#B28B67" fill-rule="nonzero"></path>
                    <path d="M44.1812147,15.4452258 C44.1812147,15.4452258 42.9780656,16.2304432 43.3922645,13.690265 C43.8064633,11.1500868 41.6684081,9.56787375 41.4711706,8.53923899 C41.273933,7.51060422 42.891281,7.06303031 42.9149495,7.05910423 C42.2603478,6.07061314 41.4505799,5.19309667 40.5165407,4.46003471 L33.7789055,7.0669564 C33.7789055,7.0669564 36.6388502,21.4560649 36.816364,21.4560649 L38.4455463,21.4560649 C38.4455463,21.4560649 39.8893253,19.1514518 39.4869607,18.9119605 C39.084596,18.6724692 40.3824192,14.8798693 38.9544192,13.7020432 C37.5264193,12.5242172 39.3488944,8.64916942 41.4514468,10.8085172 C43.5539993,12.967865 41.7630822,17.1412954 41.7630822,17.1412954 L44.1812147,15.4452258 Z" id="Path" fill="#B28B67" fill-rule="nonzero"></path>
                    <path d="M26.3272703,23.94913 L31.9524856,28.4287952 L38.2640877,35.2209255 C38.2640877,35.2209255 32.7414359,74.9647031 36.9544303,89.9113159 C36.9544303,89.9113159 3.81851927,93.3270115 1.28204418,87.6459637 C-1.25443092,81.964916 0.788950263,45.7624688 24.887436,24.0001692 C25.289989,23.6343435 25.8995878,23.6127345 26.3272703,23.94913 L26.3272703,23.94913 Z" id="Path" fill="#3276BC" fill-rule="nonzero"></path>
                    <path d="M36.9386513,89.9073898 C35.9840215,86.5231029 35.5264303,81.8667638 35.3923088,76.6921813 C35.3646955,76.1228987 35.3528613,75.5536161 35.3607508,74.9882596 C35.4790933,65.4360902 24.9860548,65.3026032 26.1694802,58.8913033 C26.9584305,54.6157947 28.1418559,49.6414426 28.8598006,46.8028818 C29.2392586,45.2758701 29.1970065,43.675175 28.7375133,42.1700993 L24.2681101,27.517943 C17.9841212,31.0710516 11.6449059,41.1257602 6.16959106,52.2091035 C-0.0907292802,68.6397771 -0.303745851,84.1203377 1.26626517,87.6420376 C3.80668502,93.3270115 36.9386513,89.9073898 36.9386513,89.9073898 Z" id="Path" fill="#419BF9" fill-rule="nonzero"></path>
                    <path d="M20.303635,74.1284466 L19.2306627,74.5210553 L11.6015136,77.2457596 C10.7767098,77.5450647 10.114456,78.1727979 9.77387441,78.9781313 C9.43329287,79.7834646 9.4451699,80.6936014 9.80665177,81.4898595 L37.9011706,142.516954 C38.7485473,144.357304 40.8702042,145.245958 42.7847728,144.562445 L44.303502,144.020645 L45.3764744,143.628037 L46.8952036,143.086237 C48.8105449,142.401731 49.8802028,140.37149 49.3567284,138.414193 L32.0274359,73.5395335 C31.7977657,72.6957739 31.2251726,71.98545 30.4473546,71.5793816 C29.6695367,71.1733132 28.7568719,71.1082419 27.9288393,71.3998162 L20.303635,74.1284466 Z" id="Path" stroke="#DFECF4" stroke-width="4.3119996"></path>
                    <path d="M44.8399882,143.832193 L56.0115239,174.801167" id="Path" stroke="#DFECF4" stroke-width="4.3119996" stroke-linecap="round"></path>
                    <path d="M23.4357676,111.096481 L40.4376457,105.022824" id="Path" stroke="#DFECF4" stroke-width="4.3119996"></path>
                    <path d="M44.1812147,15.4452258 C44.1812147,15.4452258 41.258154,22.5828518 44.1812147,26.6110169 C47.1042754,30.6391821 38.3035353,37.9966689 31.7986403,35.2012951 C25.2937454,32.4059212 37.3212922,22.1234996 34.7887618,15.4452258 C32.2562315,8.76695202 29.8144304,12.0844954 30.4495354,13.6627824 C31.0846404,15.2410693 32.8163862,15.2332171 32.3548503,15.951691 C31.8933144,16.6701649 27.9130603,18.5311301 27.8617785,17.215891 C27.790773,15.4844867 25.5343753,12.0059737 23.5501653,10.5847303 C21.5659554,9.1634868 27.2819001,1.38777878e-15 37.9130049,0.0863739116 C48.5441097,0.172747823 46.1969826,3.74548689 44.7689827,4.66419122 C42.9977893,5.78312599 35.3331375,9.42260854 36.2088723,10.4669476 C36.9347066,11.3189085 38.6980104,15.1429171 38.228585,18.6057258 C38.1970586,18.8545551 38.3241788,19.0966896 38.5474185,19.2130298 C38.7706583,19.32937 39.0430263,19.2954265 39.2305518,19.1278953 C40.7738361,17.7640278 42.4299239,16.5321071 44.1812147,15.4452258 Z" id="Path" fill="#000000" fill-rule="nonzero"></path>
                    <path d="M32.3469608,15.9556171 C32.8242757,15.2449954 31.0767509,15.2449954 30.4416459,13.6667085 C30.0471708,12.7165954 30.7966735,11.1422346 31.9919332,11.4877302 C30.836121,10.8399259 28.7256791,9.96440853 26.6862426,10.7456998 C25.0097233,11.3895781 23.9564747,10.9262998 23.348983,10.3884259 C23.4002742,10.4653413 23.4642976,10.5330443 23.5383311,10.5886563 C25.5107067,12.0098998 27.7789388,15.4884128 27.8499443,17.2198171 C27.917005,18.5311301 31.8854249,16.6662388 32.3469608,15.9556171 Z" id="Path" fill="#000000" fill-rule="nonzero"></path>
                    <path d="M36.8124193,9.38727375 L36.8124193,9.38727375 C35.0385325,10.4184114 34.0768916,12.4228553 34.3863972,14.4440737 C34.5244635,14.7503084 34.6625298,15.0840258 34.7808723,15.4491519 C37.2936789,22.1234996 25.2858559,32.4176994 31.7907508,35.2052211 C33.8578005,36.0925168 36.1536458,35.9511776 38.2325297,35.2052211 C37.419911,35.4290081 35.5303751,34.0273951 40.5402093,30.678443 C45.668386,27.2588213 40.1694026,28.7153995 39.4317341,23.8902387 C38.6940656,19.0650779 44.1654357,15.4334476 44.1654357,15.4334476 C42.4114296,16.5199768 40.7526918,17.7519055 39.2068833,19.1161171 C39.0193578,19.2836482 38.7469898,19.3175917 38.52375,19.2012515 C38.3005103,19.0849113 38.1733901,18.8427768 38.2049165,18.5939475 C38.6743419,15.1272128 36.911038,11.3071302 36.1852038,10.4551694 C36.0037452,10.2274563 36.2680436,9.84662592 36.8124193,9.38727375 Z" id="Path" fill="#000000" fill-rule="nonzero"></path>
                    <path d="M23.0057897,57.4465034 C23.2030272,56.3367295 23.4568062,55.2269556 23.7671267,54.1171817 C25.8578449,46.7165079 31.9524856,39.7869645 30.3272481,31.8758995 C30.011668,30.3368734 29.4357343,28.691843 28.0787399,27.8909213 C25.9564636,26.6345735 23.270088,28.106856 21.4278891,29.7479604 C13.2701434,37.0033689 9.35300537,48.2712383 9.71197774,59.1543512 C10.1459004,72.2321466 16.65474,88.0503507 25.9643531,97.465107 C27.7569434,99.3040483 28.7830532,101.750571 28.8361321,104.312203 C28.8992481,106.538294 29.3371155,108.697642 30.5599884,109.278702 C32.8282204,110.358376 35.7867839,110.849137 36.7729717,109.278702 C37.4080767,108.265772 35.419922,104.504581 35.0767287,103.570172 C29.8736017,89.373442 20.2602427,72.9231379 23.0057897,57.4465034 Z" id="Path" fill="#B28B67" fill-rule="nonzero"></path>
                    <path d="M31.9524856,109.824429 C31.3016017,109.635976 29.5540768,108.116581 30.915016,102.863477 C32.2759553,97.6103723 26.4298338,94.8817419 19.3292814,78.25869 C12.2287291,61.6356381 12.8677788,52.4760774 17.8657787,38.6052124 C21.1399223,29.5123951 23.9919775,27.5768343 25.5659333,27.3216387 C24.4545164,27.3251003 23.3853154,27.7457098 22.571867,28.4994647 C18.2168616,32.4373299 1.18342539,50.2539122 14.5561323,78.5217378 C19.9525521,89.9073898 23.6290604,95.0976766 25.9682979,97.465107 C27.7608882,99.3040483 28.7869979,101.750571 28.8400769,104.312203 C28.9031929,106.538294 29.3410603,108.697642 30.5639332,109.278702 C31.0093109,109.490796 31.4678338,109.674387 31.9367066,109.828355 L31.9524856,109.824429 Z" id="Path" fill="#B28B67" fill-rule="nonzero"></path>
                </g>
                <g id="woman-in-wheelchair" transform="translate(141.049998, 289.799995) scale(-1, 1) translate(-141.049998, -289.799995) translate(86.799999, 220.499996)" fill-rule="nonzero">
                    <path d="M33.1897104,21.1612724 C33.1897104,21.1612724 32.6064445,17.197333 35.2624994,15.2309694 C37.9185543,13.2646058 38.3230774,9.82190892 38.6335254,10.8862422 C38.8373548,11.5947574 39.1133086,13.8014543 35.7705052,20.4558784" id="Path" fill="#B28B67"></path>
                    <path d="M76.0095796,23.2181511 C76.0095796,23.2181511 68.3267763,22.8685754 62.6697244,28.4961207 C57.1663285,33.9738479 40.3331496,38.096969 36.8868635,20.4309087 C36.7868273,19.9152604 36.4843356,19.4606035 36.0464067,19.1676692 C35.6084779,18.8747349 35.0712687,18.7677087 34.5538,18.8703027 C33.4844792,19.0919088 32.4182942,19.8066663 32.5029619,21.8167269 C32.675433,25.7681814 37.3885976,47.3513628 60.913655,43.8961811" id="Path" fill="#6161AD"></path>
                    <path d="M74.1123976,23.7050602 C74.1123976,23.7050602 68.3267763,22.8654542 62.6728602,28.4961207 C57.2039586,33.9395146 40.5495224,38.0345448 36.9589878,20.7679996 C36.6234531,19.1512118 34.6792335,18.3521815 33.3904041,19.3915451 C32.8384966,19.8347572 32.4496526,20.5838481 32.5092336,21.8167269 C32.6817046,25.7681814 37.3948693,47.3513628 60.9199267,43.8961811" id="Path" fill="#017A50"></path>
                    <path d="M28.1629619,138.359664 C12.7249261,138.35277 0.214892589,125.891771 0.219509917,110.525739 C0.224127246,95.1597078 12.7416473,82.7061591 28.1796845,82.7084562 C43.6177218,82.7107534 56.1315004,95.1680267 56.1315019,110.534059 C56.1142086,125.899455 43.6003668,138.349344 28.1629619,138.359664 Z M28.1629619,86.1199379 C18.2412442,86.1161504 9.29436689,92.0620579 5.49485286,101.184689 C1.69533883,110.30732 3.79157264,120.809805 10.8059413,127.794136 C17.8203099,134.778467 28.3712038,136.868952 37.5380407,133.09066 C46.7048775,129.312367 52.6820793,120.409501 52.68208,110.534059 C52.6665386,97.0605793 41.6995712,86.1405754 28.1629619,86.1199379 Z" id="Shape" fill="url(#linearGradient-2)"></path>
                    <path d="M87.9226286,24.276242 L81.1837125,24.276242 L50.7127737,77.3368472 L33.798063,77.3368472 L33.798063,113.630301 C33.798063,115.564402 32.222817,117.132301 30.2796527,117.132301 L20.9818927,117.132301 C19.1126896,117.130575 17.5955124,118.636485 17.5920517,120.496968 L17.5920517,120.496968 C17.5920517,121.390988 17.9488643,122.248392 18.5839947,122.88056 C19.2191251,123.512728 20.0805468,123.867877 20.9787569,123.867877 L50.3678315,123.867877 C51.2660416,123.867877 52.1274633,123.512728 52.7625937,122.88056 C53.3977241,122.248392 53.7545367,121.390988 53.7545367,120.496968 L53.7545367,120.496968 L53.7545367,108.680059 L56.8402013,97.5903923 L66.3511983,88.2080288 L80.9046229,83.6666652 L95.583481,88.7355136 L103.466978,95.0466044 L103.466978,49.4925143 C103.466051,43.4129704 102.174071,37.4022772 99.6757497,31.8545449 L99.6757497,31.8545449 C97.6013356,27.2433694 92.9986385,24.2755933 87.9226286,24.276242 Z" id="Path" fill="url(#linearGradient-3)"></path>
                    <path d="M50.3709674,123.861634 C52.241393,123.861634 53.7576725,122.352427 53.7576725,120.490725 L53.7576725,108.680059 L56.8433372,97.5903923 L66.3543341,88.2080288 L73.2155479,86.0606349 L78.8349698,82.4462713 L78.3238281,77.349332 L51.6064876,75.788726 L50.7159095,77.349332 L34.8799272,77.349332 L33.7949272,83.7634228 L33.7949272,113.630301 C33.7949272,115.564402 32.2196812,117.132301 30.2765168,117.132301 L28.1629619,117.132301 L34.9395081,123.87724 L50.3709674,123.861634 Z" id="Path" fill="url(#linearGradient-4)"></path>
                    <path d="M80.3370362,138.359664 C69.029891,138.359664 58.8361202,131.580173 54.5090631,121.182457 C50.182006,110.784741 52.5738024,98.8164518 60.5691614,90.8583843 C68.5645204,82.9003169 80.588893,80.5196762 91.035333,84.8265512 C101.481773,89.1334263 108.293033,99.2796518 108.293033,110.534059 C108.275751,125.894586 95.7695428,138.342463 80.3370362,138.359664 Z M80.3370362,86.1199379 C66.7903056,86.1199379 55.8085106,97.0505121 55.8085106,110.534059 C55.8085106,124.017605 66.7903056,134.94818 80.3370362,134.94818 C93.8837668,134.94818 104.865562,124.017605 104.865562,110.534059 C104.850009,97.0569294 93.8773195,86.135418 80.3370362,86.1199379 L80.3370362,86.1199379 Z" id="Shape" fill="url(#linearGradient-5)"></path>
                    <ellipse id="Oval" fill="url(#linearGradient-6)" cx="28.1629619" cy="110.534059" rx="4.39958085" ry="4.37906053"></ellipse>
                    <path d="M48.6995656,58.4191808 C48.6995656,58.4191808 20.7122106,58.1070596 22.9856933,74.8086654 C25.2591759,91.5102712 30.699855,107.481513 30.699855,107.481513 L33.7259387,107.481513 L35.7799127,82.9487865 L50.4117332,67.4363625" id="Path" fill="#161A49"></path>
                    <path d="M65.0341463,56.5932718 L47.1347824,58.8030899 C47.1347824,58.8030899 22.2268204,60.3636959 29.1852452,81.587938 C36.1436699,102.81218 38.4140167,107.493998 38.4140167,107.493998 L42.0453172,107.493998 L39.6714878,81.8469986 C39.5909637,80.9712076 39.9271659,80.1084256 40.5799242,79.5157151 C41.2326824,78.9230046 42.1266513,78.66878 42.9954761,78.8287865 C51.6253026,80.4174835 73.1214727,83.5106046 81.7073975,76.6751502 C92.5668048,68.0356352 65.0341463,56.5932718 65.0341463,56.5932718 Z" id="Path" fill="#232A5E"></path>
                    <path d="M77.6653021,78.423029 C77.6653021,78.423029 73.504045,79.4218168 73.4287849,82.9519077 C73.3535248,86.4819985 80.0140449,87.1561803 80.0140449,86.25415 L80.0140449,85.7734834 C80.0132772,84.9804009 80.3344357,84.2206442 80.9046229,83.6666652 C81.6479637,82.8855755 82.2505004,81.9828183 82.6857789,80.9980289 C84.1972529,77.9017866 83.5512703,78.1889381 84.253698,78.438635" id="Path" fill="#B28B67"></path>
                    <g id="_Group_" transform="translate(47.037571, 0.245455)">
                        <path d="M31.938511,2.94699995 L27.2347539,0.587363626 C27.0647578,0.334553711 26.7965512,0.163747346 26.4946961,0.116060604 C26.0999358,0.427565717 25.7336996,0.773292887 25.4002886,1.1491818 L25.4002886,1.1491818 C25.4002886,1.1491818 25.0867048,1.46130301 24.6539591,1.91075754 C24.6972677,2.17116097 24.8303177,2.40843027 25.0302597,2.58181814 C25.6103897,3.18421207 23.7947395,4.5388181 23.5940458,5.86845445 C23.3933522,7.19809079 22.9668782,7.15751503 22.4212424,6.75487867 C22.5231292,7.00534118 22.6592542,7.24061086 22.8257655,7.45403018 C23.1811377,7.93060003 23.4506442,8.46498669 23.6222684,9.03336348 L23.6222684,9.03336348 C23.6222684,9.03336348 23.6661701,4.0206969 26.3379042,4.10809084 C29.0096382,4.19548478 31.1043781,8.02209077 29.6399417,10.2818483 C28.1755053,12.5416058 27.2033955,14.0553937 25.3250285,12.2388483 C27.0825842,14.3350969 29.7446435,15.4636916 32.481011,15.2726664 C33.2775139,14.3082119 34.4032798,12.9192725 34.4032798,12.9192725 L31.938511,2.94699995 Z" id="Path" fill="#B28B67"></path>
                        <path d="M37.8495658,24.3210602 C37.8495658,24.3210602 39.4488433,50.0211204 37.7711699,71.488817 C37.2662999,77.9622108 27.7929331,79.7444229 22.7630487,75.6119381 C20.7028031,73.9202412 19.1787858,71.2110291 19.097254,66.9162413 C18.8714737,54.7965748 0.097210981,58.5576354 0.097210981,58.5576354 C0.097210981,58.5576354 16.1809246,55.7485445 12.7409102,41.9590296 C9.57371371,29.277545 23.2930054,33.016757 25.9396527,19.9139088 C26.9305776,15.0104846 37.8495658,24.3210602 37.8495658,24.3210602 Z" id="_Path_" fill="#017A50"></path>
                        <path d="M37.7711699,71.488817 C39.4488433,50.0211204 37.8495658,24.3210602 37.8495658,24.3210602 C36.7624786,23.3431774 35.6224665,22.4252103 34.4346381,21.5712724 L23.8762713,24.2836056 C23.8762713,24.2836056 27.8211556,33.8626055 22.255043,37.5768478 C16.6889304,41.2910902 12.7315027,40.0738175 12.2391761,38.1761206 C12.2522706,39.4516067 12.4207455,40.7208038 12.7409102,41.9559084 C12.8757512,42.4927569 12.976098,43.0108781 13.054494,43.5165144 C13.9670229,43.8005447 29.4423839,44.5059386 25.2340892,60.3710596 C21.3707366,74.9252715 25.7138724,77.2817866 27.3131498,77.656332 L27.676907,77.715635 L28.8026729,77.8248775 C33.1238578,78.024635 37.4356352,75.7992108 37.7711699,71.488817 Z" id="Path" fill="#017A50"></path>
                        <path d="M35.2436844,15.6191209 C42.0609964,14.8200907 36.7363433,19.0243633 38.7432797,23.450242 C40.7282652,27.8199389 25.4002886,27.7637571 23.6473551,23.9028178 C21.8944216,20.0418784 27.2002597,20.9002118 26.5197828,15.7876664 C25.8393059,10.675121 27.6518203,16.5086664 35.2436844,15.6191209 Z" id="_Path_2" fill="url(#linearGradient-7)"></path>
                        <path d="M38.7432797,23.450242 C36.7363433,19.0274845 42.0609964,14.8200907 35.2436844,15.6191209 C30.737485,16.1466058 28.2664446,14.3050907 27.1438146,13.7932119 L27.0748261,13.7932119 C27.0748261,13.7932119 29.8719937,15.1228482 29.1413434,18.5374542 C28.4106932,21.9520602 27.9058232,22.0019996 30.0225139,24.1837269 C32.0074995,26.231242 30.7155342,26.7056662 29.6273983,26.6057874 C34.3938722,27.1956965 39.9913432,26.2000299 38.7432797,23.450242 Z" id="Path" fill="url(#linearGradient-8)"></path>
                    </g>
                    <polyline id="Path" fill="#6161AD" points="38.4108808 107.484635 40.2265311 113.70521 35.7893202 117.119816 43.0268345 117.119816 42.0421814 107.484635"></polyline>
                    <polyline id="Path" fill="#6161AD" points="30.6967191 107.484635 31.6437422 113.467998 28.1629619 117.119816 33.798063 117.119816 33.7228029 107.484635"></polyline>
                    <path d="M85.8122095,24.6757572 C80.8795362,22.0570602 75.6426866,27.7033329 78.4806201,32.4975146 C81.1178599,36.9546054 84.3258223,43.3718174 85.6930477,50.0356052 C88.6187846,64.3463625 83.1843772,72.4271806 76.8876143,77.9923017 C76.7568162,78.1084373 76.706635,78.290144 76.7594166,78.4565062 C76.8121982,78.6228685 76.9581231,78.7429358 77.1322097,78.7632411 C79.1798139,78.982736 81.2378227,79.0921373 83.2972674,79.0909684 C86.2010534,79.0909684 88.4400418,75.6357866 90.0110967,73.61012 C92.1466025,70.8540897 94.0030186,67.9513625 95.3232065,64.7115444 C99.5973538,54.2211506 97.2799694,42.4198478 92.3065302,32.5630601 C90.1459378,28.3213329 88.0292471,25.8586965 85.8122095,24.6757572 Z" id="Path" fill="#017A50"></path>
                    <ellipse id="Oval" fill="url(#linearGradient-6)" cx="80.3370362" cy="110.534059" rx="4.39958085" ry="4.37906053"></ellipse>
                </g>
                <g id="Group-2" transform="translate(535.099991, 162.399998) scale(-1, 1) translate(-535.099991, -162.399998) translate(518.599991, 144.899998)" fill-rule="nonzero">
                    <path d="M17.3879997,18.8615531 C17.3879997,18.8615531 16.227105,14.0740532 20.5359733,11.7782199 C23.3746575,10.2698866 24.7092627,8.41155327 25.2897101,7.31988662 C25.3810573,7.15912499 25.5536733,7.05952248 25.7409338,7.05952248 C25.9281943,7.05952248 26.1008102,7.15912499 26.1921574,7.31988662 C26.793789,8.30738661 27.8868943,9.74905325 29.0181311,9.78655325 C30.7764205,9.84905325 27.3233943,2.90322003 27.3233943,2.90322003 L22.8747101,1.61155339 L11.7191051,3.69488668" id="Path" fill="#131735"></path>
                    <path d="M21.002026,4.85738666 C21.002026,4.85738666 24.8956838,-0.421779913 28.1283943,6.7365533 C30.7043942,12.4448865 28.9037363,24.7032197 26.1158943,25.3323863 C23.3280522,25.961553 23.1924733,24.5448863 22.7264207,27.8323863 C22.260368,31.1198862 29.2723416,32.5323862 29.2723416,32.5323862 C29.2723416,32.5323862 31.9203679,31.0532196 32.0601837,26.5907196 C32.21271,21.7532197 31.0009732,23.536553 31.6364995,18.8115531 C32.1067889,15.3198865 32.3482889,2.97822003 26.6582101,0.894886731 C20.9681312,-1.18844657 14.3332366,4.76572 14.3332366,4.76572" id="Path" fill="#A14000"></path>
                    <path d="M17.0490523,15.5115531 C17.0490523,8.77405326 21.0528681,3.04072003 26.6454995,0.899053398 C20.036026,-1.87594655 1.55492103,0.807386733 7.08399988,22.8323864 C7.41750497,24.1563942 7.07092607,25.5571003 6.15613147,26.5823863 C3.47844731,29.5865529 -1.98951966e-13,33.3990528 -1.98951966e-13,33.3990528 C5.17742096,30.7990529 11.3504998,31.6698862 15.4475261,32.7740529 C16.1149673,32.948554 16.7679186,33.1728142 17.4007102,33.4448862 C18.181097,33.7909519 18.9905447,34.0697753 19.819947,34.2782195 L19.9597628,34.3407195 L19.9216312,34.3032195 C22.959447,35.0282195 26.3277364,34.6990528 29.7002627,32.2198862 L29.7002627,32.2198862 C29.9456644,32.0356001 30.054747,31.7245508 29.9770335,31.4306733 C29.8993199,31.1367958 29.64997,30.9174173 29.3443679,30.8740529 C22.395947,29.7407196 17.0490523,23.299053 17.0490523,15.5115531 Z" id="Path" fill="#D35400"></path>
                </g>
                <path d="M124.264968,220.334027 C120.669093,217.996421 115.890997,218.663061 113.079433,221.894633 L113.079433,221.894633 C113.079433,221.894633 109.561023,225.199996 109.943595,227.053996 C110.034769,227.46901 110.22036,227.857681 110.486095,228.190117 C110.875739,228.714577 111.164889,229.30605 111.339043,229.934875 C112.427061,233.554122 115.77421,236.032311 119.569703,236.028758 C123.365196,236.025206 126.707656,233.540755 127.788833,229.919478 C128.87001,226.298201 127.43314,222.400102 124.25556,220.334027 L124.264968,220.334027 Z" id="Path" fill="#B28B67" fill-rule="nonzero" transform="translate(119.029809, 227.485789) scale(-1, 1) translate(-119.029809, -227.485789) "></path>
                <path d="M109.316963,217.228421 C108.158216,217.719914 107.592098,219.031031 108.031269,220.206057 C108.658437,221.819723 110.11033,223.239875 111.979289,224.46339 C116.071558,227.14139 115.814419,231.36439 113.058018,233.883208 C110.301616,236.402026 116.573292,241.402208 123.139737,239.326602 C129.706182,237.250996 128.950445,216.416905 121.596905,215.32136 C116.5827,214.587875 111.825633,216.148481 109.316963,217.228421 Z" id="Path" fill="#000000" fill-rule="nonzero" transform="translate(117.753303, 227.475561) scale(-1, 1) translate(-117.753303, -227.475561) "></path>
                <path d="M114.595893,228.860394 C114.595893,222.796644 118.164511,217.636644 123.149248,215.709144 C117.258195,213.211644 100.785906,215.626644 105.713998,235.449144 C106.011253,236.640751 107.196445,240.264556 107.882758,241.407927 C112.058199,248.36405 109.516748,246.202894 113.168445,247.196644 C113.763339,247.353695 114.345317,247.555529 114.909327,247.800394 C115.604889,248.111853 116.326353,248.362794 117.065603,248.550394 L117.190222,248.606644 L117.156235,248.572894 C119.863853,249.225394 122.866024,248.929144 125.871972,246.697894 C126.090699,246.532036 126.187925,243.452092 126.118659,243.187602 C126.049392,242.923113 125.827145,242.725672 125.554761,242.686644 C119.361603,241.666644 114.595893,235.869144 114.595893,228.860394 Z" id="Path" fill="#2C82BE" fill-rule="nonzero"></path>
                <g id="Group-4" transform="translate(157.000000, 175.000000)">
                    <path d="M54.0305331,2.67779229 C54.0305331,2.67779229 58.7740044,6.21773439 60.1524803,9.13534954 C49.7034129,20.8155721 52.3773388,24.1212264 53.8254101,24.87412 C60.3808018,28.2932575 71.5221596,20.5031884 69.5368612,11.4062328 C68.0167527,4.44959371 59.7996198,0.72661428 54.0305331,2.67779229" id="Fill-2518" fill="#173647" transform="translate(61.092559, 13.928500) scale(-1, 1) translate(-61.092559, -13.928500) "></path>
                    <path d="M96.9259428,165.007505 C96.3850528,164.365654 95.7220657,163.372372 95.7220657,163.372372 L92.6281259,165.091702 C92.6281259,165.091702 92.3778269,165.429711 92.5377741,166.408351 C92.5377741,166.408351 92.0908988,167.506575 92.6562082,168.455929 C92.9822074,169.00138 95.0297753,169.83481 95.9247468,170.12767 C96.8209393,170.420529 98.0687714,170.631632 99.58888,170.631632 C101.988087,170.631632 102.97219,169.776238 102.97219,168.890337 C102.97219,167.13806 97.9698728,166.242397 96.9259428,165.007505" id="Fill-2519" fill="#1C4255" transform="translate(97.671144, 167.002002) scale(-1, 1) translate(-97.671144, -167.002002) "></path>
                    <path d="M102.591508,163.273531 L98.4389867,164.016663 C98.4389867,164.016663 98.3535188,165.430932 98.5146869,166.408351 C98.5146869,166.408351 100.443821,167.094131 101.105587,166.730497 C102.277719,166.084985 102.902856,165.007505 102.902856,165.007505 C102.117771,164.019104 102.591508,163.273531 102.591508,163.273531" id="Fill-2520" fill="#F5C7B5" transform="translate(100.659600, 165.055175) scale(-1, 1) translate(-100.659600, -165.055175) "></path>
                    <path d="M90.251266,64.0148241 L90.251266,83.4521691 C91.7017792,84.5955423 97.8994266,120.329311 97.8994266,120.329311 L97.9751268,163.90196 C100.082522,165.452896 103.667292,164.066693 103.708805,163.90196 C103.708805,163.90196 108.879616,143.056447 110.764795,120.197525 C112.955216,93.6424677 110.2935,64.4480125 109.996804,62.3186781 C107.52556,63.4010389 97.7016293,64.5029237 90.251266,64.0148241" id="Fill-2521" fill="#65BFB7" transform="translate(100.936815, 113.474016) scale(-1, 1) translate(-100.936815, -113.474016) "></path>
                    <path d="M44.2337926,79.3106443 C43.4462665,79.3326087 42.6050177,79.265495 41.8516788,79.0470705 C42.6648453,79.4155857 42.3644865,79.87806 43.1581174,80.3856836 C43.5207457,80.4869642 45.1238803,80.0647581 45.1055657,79.6877012 C45.1275432,79.1007614 44.6660163,79.2691558 44.2337926,79.3106443" id="Fill-2522" fill="#F5C7B5" transform="translate(43.479000, 79.724005) scale(-1, 1) translate(-43.479000, -79.724005) "></path>
                    <path d="M46.5461119,82.3515045 C46.4105842,82.2416821 44.4521471,80.6846445 43.5095577,80.0940441 C42.7147058,79.5864205 41.8844457,79.1227259 41.0737212,78.7542108 C41.0261033,78.7371273 38.8759739,80.9030691 38.4083421,81.7523623 C39.7208856,82.6187391 44.0235864,84.9738195 44.1151592,85.0482546 C45.6181742,86.305111 46.3727341,86.1049902 46.3507566,85.5485567 C46.3458727,85.4143293 47.6205661,85.9085301 47.7170228,85.3740611 C47.7170228,85.3740611 48.1797707,85.4045673 48.333613,85.0153079 C48.4496053,84.7224482 48.3323921,83.9768761 48.1980853,83.7596718 C47.9892993,83.4167818 46.9258338,82.691954 46.5461119,82.3515045" id="Fill-2523" fill="#F5C7B5" transform="translate(43.394653, 82.368620) scale(-1, 1) translate(-43.394653, -82.368620) "></path>
                    <path d="M50.6927067,59.8977043 C50.4924675,59.7329707 50.2201911,59.5792193 49.9039596,59.4596349 C48.5108321,58.9337077 46.2642459,59.0789173 45.4840457,61.9879907 C44.6318081,65.1618581 60.9244413,77.7987559 67.9511278,82.0818295 C68.4175386,81.1568809 69.2502406,80.0806213 70.3454513,78.8774559 C66.021994,76.3588621 54.3641657,62.8970761 50.6927067,59.8977043" id="Fill-2524" fill="#F5C7B5" transform="translate(57.898654, 70.651680) scale(-1, 1) translate(-57.898654, -70.651680) "></path>
                    <path d="M74.6928359,34.2517329 C74.4706193,33.4890773 65.644222,35.796568 64.3463301,36.7337192 C61.3525099,38.8984408 68.145991,57.42548 71.688027,63.5645523 C73.0323158,65.8952277 79.4363072,67.6145584 77.6671206,59.3449315 C76.2251542,52.6030563 75.9199115,38.4603714 74.6928359,34.2517329" id="Fill-2525" fill="#F5C7B5" transform="translate(70.788806, 49.793481) scale(-1, 1) translate(-70.788806, -49.793481) "></path>
                    <path d="M61.1978504,60.7762835 C61.1441277,60.254017 59.797397,50.7019085 59.3834879,45.7476979 C58.9732418,40.8239936 58.5825311,36.1724047 57.9427425,33.9747364 C57.8426229,33.6318465 57.5813351,33.359731 57.2248117,33.2242833 C55.6644111,32.6349031 47.4265217,34.9472748 46.0626974,35.9295752 C41.9907601,38.8728155 50.2176608,58.9800771 53.0918258,63.9989609 C55.7779614,68.8457896 69.3270734,79.1556726 75.512511,82.927462 L78.9226823,78.0196209 C76.4172503,76.5602032 62.6630153,62.2015343 61.1978504,60.7762835" id="Fill-2526" fill="#C2CFD7" transform="translate(61.937581, 58.028475) scale(-1, 1) translate(-61.937581, -58.028475) "></path>
                    <polygon id="Fill-2527" fill="#4F8FC4" transform="translate(28.666561, 87.172098) scale(-1, 1) translate(-28.666561, -87.172098) " points="-6.03961325e-14 110.710089 57.3331218 110.710089 57.3331218 63.6341065 -6.03961325e-14 63.6341065"></polygon>
                    <polygon id="Fill-2528" fill="#3B6A91" transform="translate(68.321858, 87.172098) scale(-1, 1) translate(-68.321858, -87.172098) " points="57.3331218 110.710089 79.3105946 110.710089 79.3105946 63.6341065 57.3331218 63.6341065"></polygon>
                    <path d="M109.580867,66.2747251 C102.150039,82.3917728 110.585726,107.780272 109.822619,119.844873 L107.040027,163.522462 C111.395229,165.468759 113.469658,163.096595 113.469658,163.096595 C113.469658,163.096595 117.956726,143.944789 122.499958,121.550781 C125.784369,105.364179 126.322817,73.0434458 126.193394,70.8909268 C123.645228,71.7756072 116.971402,67.3448834 109.580867,66.2747251" id="Fill-2531" fill="#65BFB7" transform="translate(116.354219, 115.282051) scale(-1, 1) translate(-116.354219, -115.282051) "></path>
                    <path d="M119.289182,27.7246215 C117.401561,26.555623 116.462635,23.1035388 116.462635,23.1035388 C116.462635,23.1035388 111.026873,21.1438191 109.395656,20.9851867 C95.3264106,19.6185079 77.0252806,37.5342025 66.3124835,71.3924491 C65.416291,74.2197658 67.7031692,77.0483028 70.6579183,76.7676455 C71.4796316,76.6895496 72.0656975,76.5919297 72.2683787,76.8603844 C79.6552515,86.657763 91.1934247,87.6425038 98.3202308,87.0274984 C101.394635,86.7627044 103.848786,84.4308087 104.324965,81.3814067 C108.152708,56.8727073 126.258483,45.635435 126.258483,34.5738786 C126.258483,31.6477217 122.488125,27.6745913 122.488125,27.6745913 C122.488125,27.6745913 120.587074,28.526325 119.289182,27.7246215" id="Fill-2532" fill="#5C65AD" transform="translate(96.187023, 54.042260) scale(-1, 1) translate(-96.187023, -54.042260) "></path>
                    <path d="M70.7340696,13.9284873 C69.9050305,16.2982107 66.0675195,22.0919525 64.7036952,22.8497271 C64.4118832,27.8478666 71.0417542,31.2938495 72.7462293,29.143771 C73.0355994,26.0248147 76.6338001,21.8234977 76.8828781,21.3781069 C75.1234593,20.7728634 71.0734994,14.6203684 70.7340696,13.9284873" id="Fill-2533" fill="#B28B67" transform="translate(70.788616, 21.861988) scale(-1, 1) translate(-70.788616, -21.861988) "></path>
                    <path d="M65.4708105,8.64114873 C61.530738,6.91327627 57.5088604,9.02430689 55.7933966,12.9242224 L54.0132213,16.9730083 C52.7214343,19.9150284 55.2256452,26.5348788 58.026552,27.1181578 C64.6527601,28.497039 70.824767,17.9626302 71.1690808,16.6179159 C72.1360896,12.8644302 69.1386065,10.2518773 65.4708105,8.64114873" id="Fill-2534" fill="#B28B67" transform="translate(62.508166, 17.637199) scale(-1, 1) translate(-62.508166, -17.637199) "></path>
                    <path d="M70.1076414,7.17685003 C64.7536848,7.12681983 65.6804016,0.976765307 57.5951335,0.0762216093 C45.8530582,-1.22944473 45.1815243,14.6569759 45.3756586,15.7429974 C45.5917705,16.9632463 45.6845642,19.0523125 47.818821,19.290261 C49.9152277,19.5233285 56.7465589,10.7900071 56.7465589,10.7900071 C56.7465589,10.7900071 55.784434,14.3653364 56.5646343,14.7375123 C58.6940072,15.7527594 60.7220395,10.1542574 60.7220395,10.1542574 C60.7220395,10.1542574 67.6754677,17.4720901 72.7876721,15.4232922 C76.8876918,13.7796169 76.127027,11.3635241 75.7363164,10.2140496 C75.2210668,8.70216117 73.7620068,7.20979675 70.1076414,7.17685003" id="Fill-2535" fill="#173647" transform="translate(60.704584, 9.647422) scale(-1, 1) translate(-60.704584, -9.647422) "></path>
                    <path d="M65.7223888,13.7137235 C65.4415655,14.7228693 66.2351965,16.6008324 67.1582503,17.1536051 C67.8896118,16.1505605 69.3706493,14.1261676 70.1020107,12.809519 C69.630716,12.270169 68.9152272,11.9126361 68.507423,11.8003732 C67.4390736,11.5014122 66.0215266,12.6460057 65.7223888,13.7137235" id="Fill-2536" fill="#B28B67" transform="translate(67.883518, 14.452849) scale(-1, 1) translate(-67.883518, -14.452849) "></path>
                    <path d="M69.6986015,29.6806805 C68.8573527,30.4933663 69.9049455,33.7941396 71.0148079,34.168756 C72.1307752,34.5458129 74.9878466,32.5385034 74.8095849,31.374386 C74.6056828,30.0443147 70.6668313,28.7471901 69.6986015,29.6806805" id="Fill-2537" fill="#5580B4" transform="translate(72.105391, 31.789401) scale(-1, 1) translate(-72.105391, -31.789401) "></path>
                    <path d="M76.1246376,21.5770075 C73.7779319,20.913192 72.1003181,21.8625457 72.1003181,21.8625457 C70.9416169,27.4500655 73.2956485,32.212697 73.2956485,32.212697 L79.9059839,29.5635366 C75.0416366,25.4451965 76.1246376,21.5770075 76.1246376,21.5770075" id="Fill-2539" fill="#FFFFFE" transform="translate(75.842816, 26.777019) scale(-1, 1) translate(-75.842816, -26.777019) "></path>
                    <path d="M68.1741208,29.5635366 C68.1741208,29.5635366 70.373089,31.1010502 71.0739262,34.4018235 C71.0739262,34.4018235 71.7796473,31.3414393 71.7796473,29.9491352 C71.7796473,28.6141829 71.3291091,28.0931366 71.3291091,28.0931366 C70.7662416,29.5855011 68.1741208,29.5635366 68.1741208,29.5635366" id="Fill-2540" fill="#FFFFFE" transform="translate(69.976884, 31.247480) scale(-1, 1) translate(-69.976884, -31.247480) "></path>
                    <path d="M63.2366109,76.9750878 C62.4503057,76.9482424 61.6139408,76.828658 60.8776955,76.563864 C61.6652216,76.9824093 61.3367805,77.4253597 62.0974452,77.9805729 C62.4515267,78.1062586 64.0778597,77.7853331 64.0839646,77.407056 C64.1413502,76.823777 63.6724974,76.9616651 63.2366109,76.9750878" id="Fill-2541" fill="#B28B67" transform="translate(62.483224, 77.286082) scale(-1, 1) translate(-62.483224, -77.286082) "></path>
                    <path d="M65.8376101,80.1660387 C65.7081872,80.0488949 63.8523117,78.3722728 62.9475724,77.7218802 C62.1881286,77.1654467 61.3883928,76.6517219 60.6020876,76.2343967 C60.5556908,76.2136525 58.2736965,78.2392657 57.753563,79.059273 C59.0099418,80.0049659 63.1575794,82.6260606 63.2418263,82.7053767 C64.6630362,84.0537518 65.4285849,83.9024409 65.4420156,83.3460074 C65.4456785,83.2093395 66.6874057,83.7840768 66.8168286,83.255709 C66.8168286,83.255709 67.2759136,83.3155012 67.4553963,82.937224 C67.589703,82.6504655 67.5188867,81.9012327 67.3992316,81.6754867 C67.2099812,81.3203942 66.1965755,80.5284527 65.8376101,80.1660387" id="Fill-2542" fill="#B28B67" transform="translate(62.640895, 79.993163) scale(-1, 1) translate(-62.640895, -79.993163) "></path>
                    <path d="M69.8037382,56.1979096 C69.6144877,56.0221938 69.3532,55.8513589 69.0455154,55.7134708 C67.6890169,55.0996856 65.435105,55.1045666 64.475422,57.9575085 C63.4253872,61.072804 78.8938652,74.7054249 85.6385074,79.4204667 C86.1623038,78.5260242 87.0584963,77.5058961 88.2281863,76.3722849 C84.072002,73.5888971 73.2810628,59.4218072 69.8037382,56.1979096" id="Fill-2543" fill="#F5C7B5" transform="translate(76.326353, 67.403875) scale(-1, 1) translate(-76.326353, -67.403875) "></path>
                    <path d="M92.8556369,30.492146 C92.6810381,29.7160677 83.7276598,31.4659046 82.3736033,32.3200789 C79.2491392,34.2920011 84.8692674,53.2082998 88.0169299,59.5584751 C89.2122603,61.9684667 95.4965965,64.0855986 94.2499854,55.7220125 C93.2329168,48.9032616 93.8165408,34.7691184 92.8556369,30.492146" id="Fill-2544" fill="#F5C7B5" transform="translate(87.935328, 46.002589) scale(-1, 1) translate(-87.935328, -46.002589) "></path>
                    <path d="M79.4038242,57.2265794 C79.3830677,56.7030927 79.370858,35.1193299 77.8373187,30.2749417 C75.5248002,22.9790735 64.8120032,26.3164542 63.9463349,31.9369207 C63.1820073,36.899673 68.5567203,54.7470336 71.112212,59.9367523 C73.4882211,64.9422133 86.3633572,76.0818656 92.3009378,80.2319322 L96.0114678,75.5486169 C93.6024926,73.9354478 80.7761952,58.7421286 79.4038242,57.2265794" id="Fill-2545" fill="#C2CFD7" transform="translate(79.942054, 53.159881) scale(-1, 1) translate(-79.942054, -53.159881) "></path>
                    <path d="M118.864481,164.820807 C118.373651,164.139908 117.791248,163.096595 117.791248,163.096595 L114.572769,164.568216 C114.572769,164.568216 114.295609,164.886701 114.378635,165.873882 C114.378635,165.873882 113.847512,166.935498 114.337122,167.9239 C114.617945,168.493756 116.499461,169.172215 117.462807,169.845792 C118.236902,170.388803 119.557992,170.576721 121.07688,170.636513 C122.596989,170.695085 124.517575,170.047133 124.58595,169.166113 C124.72514,167.417497 119.80707,166.133795 118.864481,164.820807" id="Fill-2529" fill="#1C4255" transform="translate(119.359315, 166.868392) scale(-1, 1) translate(-119.359315, -166.868392) "></path>
                </g>
            </g>
        </g>
    </g>
</svg>