<?xml version="1.0" encoding="UTF-8"?>
<svg width="72px" height="72px" viewBox="0 0 72 72" version="1.1" xmlns="http://www.w3.org/2000/svg" xmlns:xlink="http://www.w3.org/1999/xlink">
    <!-- Generator: Sketch 53.2 (72643) - https://sketchapp.com -->
    <title>Group 3</title>
    <desc>Created with Sketch.</desc>
    <g id="Page-1" stroke="none" stroke-width="1" fill="none" fill-rule="evenodd">
        <g id="Desktop-HD-Copy" transform="translate(-911.000000, -1172.000000)">
            <g id="Group-3" transform="translate(911.000000, 1172.000000)">
                <rect id="Rectangle" fill="#F7F8F9" x="0" y="0" width="72" height="72" rx="36"></rect>
                <g id="wallet" transform="translate(21.000000, 21.000000)" fill="#7552F6" fill-rule="nonzero">
                    <path d="M29.8662162,13.9700597 L28.4187387,13.9700597 L28.4187387,7.35134328 C28.4187387,5.76456716 27.1200901,4.47367164 25.5237838,4.47367164 L23.5633333,4.47367164 L21.5571171,0.888089552 C21.2513514,0.340119403 20.6694595,1.88293825e-13 20.0383784,1.88293825e-13 C19.7442342,1.88293825e-13 19.4524324,0.0754029851 19.1947748,0.217522388 L11.4953153,4.47358209 L2.89495495,4.47358209 C1.29864865,4.47358209 -4.61852778e-14,5.76447761 -4.61852778e-14,7.35125373 L-4.61852778e-14,27.1112239 C-4.61852778e-14,28.698 1.29864865,29.9888955 2.89495495,29.9888955 L25.5237838,29.9888955 C27.1200901,29.9888955 28.4187387,28.698 28.4187387,27.1112239 L28.4187387,21.3080597 L29.8662162,21.3080597 L29.8662162,13.9700597 Z M25.5237838,5.62468657 C26.4154054,5.62468657 27.1437838,6.29802985 27.2416216,7.15961194 L25.0657658,7.15961194 L24.2076577,5.62468657 L25.5237838,5.62468657 Z M19.7581081,1.22355224 C20.0296396,1.07220896 20.395045,1.1780597 20.544955,1.44689552 L23.740991,7.15907463 L9.01954955,7.15907463 L19.7581081,1.22355224 Z M27.2607207,27.1112239 C27.2607207,28.0631642 26.4813514,28.8378806 25.5236937,28.8378806 L2.89495495,28.8378806 C1.9372973,28.8378806 1.15792793,28.0631642 1.15792793,27.1112239 L1.15792793,7.35134328 C1.15792793,6.39940299 1.9372973,5.62468657 2.89495495,5.62468657 L9.41324324,5.62468657 L6.6363964,7.15970149 L3.25684685,7.15970149 C2.93666667,7.15970149 2.67783784,7.41752239 2.67783784,7.73525373 C2.67783784,8.05298507 2.93666667,8.31080597 3.25684685,8.31080597 L4.55378378,8.31080597 L25.7096396,8.31080597 L27.2607207,8.31080597 L27.2607207,13.970597 L23.0265766,13.970597 C21.0602703,13.970597 19.46,15.561403 19.46,17.5158806 L19.46,17.763403 C19.46,19.7179701 21.0603604,21.3086866 23.0265766,21.3086866 L27.2607207,21.3086866 L27.2607207,27.1112239 Z M28.7081982,20.1570448 L28.4187387,20.1570448 L23.0265766,20.1570448 C21.6983784,20.1570448 20.6179279,19.0831343 20.6179279,17.7627761 L20.6179279,17.5152537 C20.6179279,16.1949851 21.6982883,15.1209851 23.0265766,15.1209851 L28.4187387,15.1209851 L28.7081982,15.1209851 L28.7081982,20.1570448 Z M24.8,17.6862985 C24.8,18.3884776 24.2279279,18.9570448 23.5216216,18.9570448 C22.8152252,18.9570448 22.2432432,18.3883881 22.2432432,17.6862985 C22.2432432,16.984209 22.8153153,16.4155522 23.5216216,16.4155522 C24.228018,16.4154627 24.8,16.9846567 24.8,17.6862985 Z" id="Shape"></path>
                </g>
            </g>
        </g>
    </g>
</svg>