<?xml version="1.0" encoding="UTF-8"?>
<svg width="52px" height="53px" viewBox="0 0 52 53" version="1.1" xmlns="http://www.w3.org/2000/svg" xmlns:xlink="http://www.w3.org/1999/xlink">
    <!-- Generator: Sketch 53.2 (72643) - https://sketchapp.com -->
    <title> _person vr back</title>
    <desc>Created with Sketch.</desc>
    <g id="Page-1" stroke="none" stroke-width="1" fill="none" fill-rule="evenodd">
        <g id="Desktop-HD-Copy" transform="translate(-581.000000, -444.000000)" fill="#7552F6" fill-rule="nonzero">
            <g id="-_person-vr-back" transform="translate(581.000000, 444.000000)">
                <g id="Group" transform="translate(15.711462, 0.000000)">
                    <path d="M11.0818182,12.0116054 L9.15454545,12.0116054 C6.50454545,12.0116054 4.33636364,9.84951644 4.33636364,7.20696325 L4.33636364,5.28510638 C4.33636364,2.64255319 6.50454545,0.480464217 9.15454545,0.480464217 L11.0818182,0.480464217 C13.7318182,0.480464217 15.9,2.64255319 15.9,5.28510638 L15.9,7.20696325 C15.9,9.84951644 13.7318182,12.0116054 11.0818182,12.0116054 Z M9.15454545,2.64255319 C7.70909091,2.64255319 6.74545455,3.84371373 6.74545455,5.04487427 L6.74545455,7.20696325 C6.74545455,8.6483559 7.95,9.84951644 9.15454545,9.84951644 L11.0818182,9.84951644 C12.5272727,9.84951644 13.7318182,8.6483559 13.7318182,7.20696325 L13.7318182,5.28510638 C13.7318182,3.84371373 12.5272727,2.8827853 11.0818182,2.8827853 L9.15454545,2.8827853 L9.15454545,2.64255319 Z" id="Shape"></path>
                    <path d="M12.5272727,52.3705996 L7.70909091,52.3705996 C5.78181818,52.3705996 4.33636364,50.929207 4.33636364,49.0073501 L4.33636364,38.1969052 C1.92727273,37.9566731 -8.8817842e-16,35.7945841 -8.8817842e-16,33.3922631 L-8.8817842e-16,19.939265 C-8.8817842e-16,19.939265 -8.8817842e-16,19.6990329 -8.8817842e-16,19.6990329 C0.240909091,14.1736944 4.57727273,10.0897485 10.1181818,10.0897485 C15.6590909,10.0897485 19.9954545,14.4139265 20.2363636,19.6990329 C20.2363636,19.6990329 20.2363636,19.939265 20.2363636,19.939265 L20.2363636,33.1520309 C20.2363636,35.554352 18.3090909,37.716441 15.9,37.9566731 L15.9,48.767118 C15.9,50.6889749 14.4545455,52.3705996 12.5272727,52.3705996 Z M2.16818182,20.1794971 L2.16818182,33.1520309 C2.16818182,34.5934236 3.37272727,35.7945841 4.81818182,35.7945841 L5.3,35.7945841 C5.78181818,35.7945841 6.50454545,36.2750484 6.50454545,36.9957447 L6.50454545,48.767118 C6.50454545,49.4878143 6.98636364,49.9682785 7.70909091,49.9682785 L12.5272727,49.9682785 C13.25,49.9682785 13.7318182,49.4878143 13.7318182,48.767118 L13.7318182,36.9957447 C13.7318182,36.2750484 14.2136364,35.7945841 14.9363636,35.7945841 L15.4181818,35.7945841 C16.8636364,35.7945841 18.0681818,34.5934236 18.0681818,33.1520309 L18.0681818,20.1794971 C18.0681818,20.1794971 18.0681818,19.939265 18.0681818,19.939265 C18.0681818,15.615087 14.4545455,12.2518375 10.1181818,12.2518375 C5.78181818,12.2518375 2.16818182,15.615087 2.16818182,20.1794971 C2.16818182,20.1794971 2.16818182,20.1794971 2.16818182,20.1794971 Z" id="Shape"></path>
                    <g transform="translate(0.000000, 49.195358)" id="Path">
                        <path d="M9.63636364,3.17524178 L1.20454545,3.17524178 C0.722727273,3.17524178 0.240909091,2.69477756 0.240909091,2.21431335 C0.240909091,1.49361702 0.722727273,1.0131528 1.20454545,1.0131528 L9.63636364,1.0131528 C10.1181818,1.0131528 10.8409091,1.49361702 10.8409091,2.21431335 C10.6,2.45454545 10.1181818,3.17524178 9.63636364,3.17524178 Z"></path>
                        <path d="M19.0318182,3.17524178 L7.70909091,3.17524178 C6.98636364,3.17524178 6.50454545,2.69477756 6.50454545,2.21431335 C6.50454545,1.49361702 6.98636364,1.0131528 7.70909091,1.0131528 L19.0318182,1.0131528 C19.7545455,1.0131528 20.2363636,1.49361702 20.2363636,2.21431335 C20.2363636,2.45454545 19.7545455,3.17524178 19.0318182,3.17524178 Z"></path>
                    </g>
                </g>
                <g id="Group">
                    <g id="Path">
                        <g transform="translate(0.000000, 32.379110)">
                            <path d="M2.46146245,19.7512573 C1.73873518,19.7512573 1.01600791,19.5110251 0.775098814,19.0305609 C-1.393083,16.868472 1.97964427,10.8626692 10.1705534,0.772920696 C10.6523715,0.29245648 11.1341897,0.29245648 11.856917,0.532688588 C12.3387352,1.0131528 12.3387352,1.49361702 11.856917,1.97408124 C2.94328063,12.544294 1.97964427,16.6282398 2.22055336,17.3489362 C2.94328063,17.5891683 7.03873518,16.6282398 17.6387352,7.73965184 C18.1205534,7.25918762 18.8432806,7.49941973 19.0841897,7.97988395 C19.5660079,8.46034816 19.3250988,9.18104449 18.8432806,9.4212766 C10.8932806,16.3880077 5.35237154,19.7512573 2.46146245,19.7512573 Z"></path>
                            <path d="M18.8432806,9.4212766 L12.8205534,9.4212766 C12.3387352,9.4212766 11.6160079,8.94081238 11.6160079,8.22011605 C11.6160079,7.49941973 12.0978261,7.01895551 12.8205534,7.01895551 L18.6023715,7.01895551 C19.3250988,7.01895551 19.806917,7.49941973 19.806917,8.22011605 C19.806917,8.94081238 19.3250988,9.4212766 18.8432806,9.4212766 Z"></path>
                        </g>
                        <g transform="translate(31.318182, 0.000000)">
                            <path d="M9.44782609,19.939265 C9.206917,19.939265 8.96600791,19.939265 8.72509881,19.6990329 C8.24328063,19.2185687 8.24328063,18.4978723 8.48418972,18.0174081 C17.3978261,7.44719536 18.3614625,3.36324952 18.1205534,2.64255319 C17.3978261,2.16208897 12.5796443,4.08394584 2.94328063,12.2518375 C2.46146245,12.7323017 1.73873518,12.4920696 1.256917,12.0116054 C1.01600791,11.5311412 1.01600791,10.8104449 1.49782609,10.5702128 C11.6160079,2.16208897 17.6387352,-0.960928433 19.806917,1.20116054 C21.9750988,3.36324952 18.6023715,9.36905222 10.1705534,19.4588008 C9.92964427,19.6990329 9.68873518,19.939265 9.44782609,19.939265 Z"></path>
                            <path d="M14.7478261,20.4197292 L8.96600791,20.4197292 C8.24328063,20.4197292 8.00237154,19.939265 8.00237154,19.4588008 L8.00237154,13.4529981 C8.00237154,12.7323017 8.48418972,12.2518375 8.96600791,12.2518375 C9.44782609,12.2518375 9.92964427,12.7323017 9.92964427,13.4529981 L9.92964427,18.2576402 L14.7478261,18.2576402 C15.2296443,18.2576402 15.7114625,18.7381044 15.7114625,19.4588008 C15.9523715,19.939265 15.4705534,20.4197292 14.7478261,20.4197292 Z"></path>
                        </g>
                    </g>
                    <g id="Path">
                        <g>
                            <path d="M10.8932806,19.939265 C10.6523715,19.939265 10.4114625,19.939265 10.1705534,19.4588008 C1.73873518,9.60928433 -1.393083,3.36324952 0.775098814,1.20116054 C2.94328063,-0.720696325 8.96600791,2.40232108 18.8432806,10.8104449 C19.3250988,11.2909091 19.3250988,11.7713733 19.0841897,12.2518375 C18.6023715,12.7323017 17.8796443,12.7323017 17.6387352,12.4920696 C7.76146245,4.08394584 2.94328063,2.40232108 2.22055336,2.8827853 C1.73873518,3.60348162 3.66600791,8.40812379 11.856917,18.0174081 C12.3387352,18.4978723 12.0978261,19.2185687 11.856917,19.4588008 C11.6160079,19.939265 11.3750988,19.939265 10.8932806,19.939265 Z"></path>
                            <path d="M11.6160079,20.4197292 L11.6160079,20.4197292 L5.83418972,20.4197292 C5.11146245,20.4197292 4.62964427,19.939265 4.62964427,19.2185687 C4.62964427,18.4978723 5.11146245,18.0174081 5.83418972,18.0174081 L5.83418972,18.0174081 L10.6523715,18.0174081 L10.6523715,13.212766 C10.6523715,12.4920696 11.1341897,12.0116054 11.856917,12.0116054 C12.3387352,12.0116054 13.0614625,12.4920696 13.0614625,13.212766 L13.0614625,19.2185687 C13.0614625,19.4588008 12.8205534,19.6990329 12.8205534,19.939265 C12.0978261,20.1794971 11.856917,20.4197292 11.6160079,20.4197292 Z"></path>
                        </g>
                        <g transform="translate(31.318182, 32.379110)">
                            <path d="M17.8796443,19.7512573 C14.9887352,19.7512573 9.44782609,16.3880077 1.256917,9.6615087 C0.775098814,9.18104449 0.775098814,8.70058027 1.01600791,8.22011605 C1.49782609,7.73965184 1.97964427,7.73965184 2.70237154,7.97988395 C13.3023715,16.868472 17.3978261,17.8294004 18.1205534,17.5891683 C18.3614625,17.1087041 17.3978261,13.0247582 8.48418972,2.21431335 C8.00237154,1.73384913 8.24328063,1.0131528 8.72509881,0.772920696 C9.206917,0.29245648 9.92964427,0.532688588 10.1705534,1.0131528 C18.6023715,11.1029014 21.7341897,17.1087041 19.5660079,19.270793 C19.3250988,19.5110251 18.8432806,19.7512573 17.8796443,19.7512573 Z"></path>
                            <path d="M7.52055336,9.4212766 L1.73873518,9.4212766 C1.256917,9.4212766 0.534189723,8.94081238 0.534189723,8.22011605 C0.534189723,7.49941973 1.01600791,7.01895551 1.73873518,7.01895551 L7.52055336,7.01895551 C8.00237154,7.01895551 8.72509881,7.49941973 8.72509881,8.22011605 C8.48418972,8.94081238 8.00237154,9.4212766 7.52055336,9.4212766 Z"></path>
                        </g>
                    </g>
                </g>
            </g>
        </g>
    </g>
</svg>